<svg version="1.1" xmlns="http://www.w3.org/2000/svg" xmlns:xlink="http://www.w3.org/1999/xlink">
  <defs>
    <!-- Icons -->

    <symbol viewBox="0 0 24 24" id="discord">
        <path d="M20.222 0c1.406 0 2.54 1.137 2.607 2.475V24l-2.677-2.273-1.47-1.338-1.604-1.398.67 2.205H3.71c-1.402 0-2.54-1.065-2.54-2.476V2.48C1.17 1.142 2.31.003 3.715.003h16.5L20.222 0zm-6.118 5.683h-.03l-.202.2c2.073.6 3.076 1.537 3.076 1.537-1.336-.668-2.54-1.002-3.744-1.137-.87-.135-1.74-.064-2.475 0h-.2c-.47 0-1.47.2-2.81.735-.467.203-.735.336-.735.336s1.002-1.002 3.21-1.537l-.135-.135s-1.672-.064-3.477 1.27c0 0-1.805 3.144-1.805 7.02 0 0 1 1.74 3.743 1.806 0 0 .4-.533.805-1.002-1.54-.468-2.14-1.404-2.14-1.404s.134.066.335.2h.06c.03 0 .044.015.06.03v.006c.016.016.03.03.06.03.33.136.66.27.93.4a8.18 8.18 0 0 0 1.8.536c.93.135 1.996.2 3.21 0 .6-.135 1.2-.267 1.8-.535.39-.2.87-.4 1.397-.737 0 0-.6.936-2.205 1.404.33.466.795 1 .795 1 2.744-.06 3.81-1.8 3.87-1.726 0-3.87-1.815-7.02-1.815-7.02-1.635-1.214-3.165-1.26-3.435-1.26l.056-.02zm.168 4.413c.703 0 1.27.6 1.27 1.335 0 .74-.57 1.34-1.27 1.34-.7 0-1.27-.6-1.27-1.334.002-.74.573-1.338 1.27-1.338zm-4.543 0c.7 0 1.266.6 1.266 1.335 0 .74-.57 1.34-1.27 1.34-.7 0-1.27-.6-1.27-1.334 0-.74.57-1.338 1.27-1.338z"/>
    </symbol>
    <symbol viewBox="0 0 24 24" id="youtube">
        <path d="M23.495 6.205a3.007 3.007 0 0 0-2.088-2.088c-1.87-.501-9.396-.501-9.396-.501s-7.507-.01-9.396.501A3.007 3.007 0 0 0 .527 6.205a31.247 31.247 0 0 0-.522 5.805 31.247 31.247 0 0 0 .522 5.783 3.007 3.007 0 0 0 2.088 2.088c1.868.502 9.396.502 9.396.502s7.506 0 9.396-.502a3.007 3.007 0 0 0 2.088-2.088 31.247 31.247 0 0 0 .5-5.783 31.247 31.247 0 0 0-.5-5.805zM9.609 15.601V8.408l6.264 3.602z"/>
    </symbol>
    <symbol viewBox="0 0 24 24" id="twitter">
        <path d="M23.954 4.569a10 10 0 0 1-2.825.775 4.958 4.958 0 0 0 2.163-2.723c-.951.555-2.005.959-3.127 1.184a4.92 4.92 0 0 0-8.384 4.482C7.691 8.094 4.066 6.13 1.64 3.161a4.822 4.822 0 0 0-.666 2.475c0 1.71.87 3.213 2.188 4.096a4.904 4.904 0 0 1-2.228-.616v.061a4.923 4.923 0 0 0 3.946 4.827 4.996 4.996 0 0 1-2.212.085 4.937 4.937 0 0 0 4.604 3.417 9.868 9.868 0 0 1-6.102 2.105c-.39 0-.779-.023-1.17-.067a13.995 13.995 0 0 0 7.557 2.209c9.054 0 13.999-7.496 13.999-13.986 0-.209 0-.42-.015-.63a9.936 9.936 0 0 0 2.46-2.548l-.047-.02z"/>
    </symbol>
    <symbol viewBox="0 0 24 24" id="facebook">
        <path d="M23.998 12c0-6.628-5.372-12-11.999-12C5.372 0 0 5.372 0 12c0 5.988 4.388 10.952 10.124 11.852v-8.384H7.078v-3.469h3.046V9.356c0-3.008 1.792-4.669 4.532-4.669 1.313 0 2.686.234 2.686.234v2.953H15.83c-1.49 0-1.955.925-1.955 1.874V12h3.328l-.532 3.469h-2.796v8.384c5.736-.9 10.124-5.864 10.124-11.853z"/>
    </symbol>
    <symbol viewBox="0 0 448 512" id="twitch">
        <path d="M40.1 32L10 108.9v314.3h107V480h60.2l56.8-56.8h87l117-117V32H40.1zm357.8 254.1L331 353H224l-56.8 56.8V353H76.9V72.1h321v214zM331 149v116.9h-40.1V149H331zm-107 0v116.9h-40.1V149H224z"/>
    </symbol>
    <symbol id="arrow-circle-down" viewBox="0 0 512 512">
        <path fill="currentColor" d="M504 256c0 137-111 248-248 248S8 393 8 256 119 8 256 8s248 111 248 248zm-143.6-28.9L288 302.6V120c0-13.3-10.7-24-24-24h-16c-13.3 0-24 10.7-24 24v182.6l-72.4-75.5c-9.3-9.7-24.8-9.9-34.3-.4l-10.9 11c-9.4 9.4-9.4 24.6 0 33.9L239 404.3c9.4 9.4 24.6 9.4 33.9 0l132.7-132.7c9.4-9.4 9.4-24.6 0-33.9l-10.9-11c-9.5-9.5-25-9.3-34.3.4z"/>
    </symbol>

    <!-- Transhuman Design logo -->

    <symbol viewBox="0 0 416 163" id="thd-text">
        <path d=" M 136.84 0 L 154.9 0 C 154.93 30.33 154.9 60.67 154.91 91 C 151.12 91.01 147.33 91.01 143.53 91 C 143.53 64.17 143.54 37.35 143.53 10.52 C 141.28 10.52 139.05 10.52 136.81 10.52 C 136.8 37.35 136.8 64.17 136.81 91 C 132.98 91.01 129.15 91.01 125.32 91 C 125.34 64.49 125.3 37.98 125.34 11.48 C 129.21 7.69 132.98 3.8 136.84 0 Z "/>
        <path d=" M 215.31 0 L 215.66 0 C 216.13 15.09 215.73 30.21 215.87 45.31 C 217.96 45.31 220.05 45.31 222.14 45.31 C 222.17 30.21 222.09 15.11 222.19 0.01 L 215.93 0 L 236.51 0 L 233.66 0.01 C 233.76 26.57 233.69 53.13 233.7 79.69 C 229.89 83.49 226.1 87.3 222.28 91.08 C 222.27 78.54 222.27 65.99 222.28 53.44 C 220.15 53.43 218.01 53.43 215.88 53.42 C 215.85 65.95 215.87 78.47 215.87 91 C 211.97 91.01 208.08 91.01 204.19 91 C 204.23 64.52 204.12 38.05 204.25 11.58 C 208 7.95 211.65 4.22 215.38 0.57 C 215.36 0.42 215.33 0.14 215.31 0 Z "/>
        <path d=" M 256.42 0 L 256.75 0 C 256.56 27.71 256.72 55.43 256.67 83.15 C 258.78 83.15 260.89 83.15 263 83.15 C 263.14 59.25 262.96 35.34 263.09 11.44 C 266.92 7.68 270.72 3.9 274.5 0.08 L 272.89 0 L 274.51 0 C 274.64 30.33 274.53 60.66 274.57 90.99 C 264.76 91.01 254.95 91 245.14 91 C 245.18 64.49 245.05 37.98 245.21 11.46 C 248.98 7.68 253 4.12 256.42 0 Z "/>
        <path d=" M 397.86 0 L 416 0 L 416 90.94 C 412.15 91.02 408.3 91.01 404.45 91 C 404.56 64.17 404.56 37.34 404.45 10.51 C 402.21 10.52 399.97 10.52 397.73 10.52 C 397.72 37.35 397.72 64.17 397.72 91 C 393.93 91.01 390.14 91.01 386.35 90.98 C 386.3 64.48 386.5 37.97 386.25 11.47 C 390.17 7.69 393.89 3.72 397.86 0 Z "/>
        <path d=" M 0 0.99 L 0.01 0.11 C 12.55 0.15 25.09 0.11 37.63 0.13 C 37.63 3.49 37.63 6.84 37.63 10.2 C 33.48 10.21 29.32 10.21 25.17 10.19 C 25.37 37.12 25.34 64.06 25.18 91 C 21.27 91.01 17.36 91.01 13.45 90.99 C 13.46 64.06 13.46 37.13 13.45 10.21 C 8.96 10.2 4.48 10.2 0 10.2 L 0 0.99 L 0 0.99 Z "/>
        <path d=" M 175.49 1.17 C 181.51 0 187.82 0.83 193.96 0.77 C 194.23 6.89 194.01 13.02 194.09 19.15 C 190.31 22.98 186.48 26.76 182.68 30.57 C 182.68 22.41 182.68 14.25 182.68 6.09 C 180.63 6.08 178.58 6.08 176.53 6.08 C 176.52 17.83 176.53 29.57 176.53 41.32 C 178.6 41.32 180.68 41.32 182.75 41.31 C 186.55 45.11 190.39 48.85 194.11 52.72 C 193.84 61.76 194.51 70.91 193.78 79.88 C 190.3 83.75 186.41 87.25 182.79 90.99 C 176.86 91.01 170.92 91 164.98 91 C 165 84.97 164.95 78.95 164.99 72.92 C 164.67 71.54 165.98 70.73 166.74 69.84 C 169.99 66.68 173.18 63.45 176.39 60.24 C 176.42 68.59 176.38 76.94 176.41 85.28 C 178.47 85.3 180.54 85.31 182.61 85.35 C 182.78 72.68 182.64 60.01 182.68 47.35 C 176.78 47.34 170.88 47.35 164.98 47.34 C 165.04 35.36 164.86 23.37 165.07 11.39 C 168.65 8.09 171.89 4.44 175.49 1.17 Z "/>
        <path d=" M 283.15 12.44 C 287.26 8.69 290.84 4.33 295.16 0.83 C 301.24 0.32 307.36 0.72 313.46 0.76 C 313.46 4.41 313.46 8.06 313.47 11.7 C 316.99 8.13 320.43 4.44 324.16 1.09 C 328.18 0.2 332.34 0.67 336.42 0.68 C 336.44 30.78 336.42 60.89 336.43 91 C 332.58 91.01 328.75 91.02 324.91 90.97 C 324.9 63.59 324.93 36.21 324.89 8.83 C 321.08 12.66 317.22 16.45 313.44 20.3 C 313.46 40.11 313.5 59.91 313.42 79.72 C 309.55 83.45 305.82 87.33 301.95 91.07 C 301.94 62.66 301.95 34.25 301.94 5.84 C 299.81 5.83 297.69 5.83 295.57 5.83 C 295.57 34.21 295.55 62.6 295.57 90.99 C 291.44 91.01 287.32 91.01 283.19 91 C 283.08 64.81 283.15 38.62 283.15 12.44 Z "/>
        <path d=" M 95.3 0 L 95.82 0 C 98.02 0.74 100.36 0.11 102.62 0.14 C 106.46 4.18 110.47 8.05 114.4 12.01 C 114.41 38.34 114.41 64.67 114.41 91 C 110.41 91.01 106.41 91.01 102.41 90.99 C 102.42 77.5 102.42 64.01 102.41 50.52 C 100.19 50.51 97.97 50.52 95.76 50.52 C 95.75 64.01 95.75 77.5 95.75 91 C 91.61 91.01 87.46 91.01 83.31 91 C 83.15 64.82 83.19 38.64 83.3 12.46 C 87.46 8.48 91.86 4.65 95.3 0 Z  M 95.83 6.48 C 98.02 6.4 100.22 6.39 102.42 6.4 C 102.41 18.56 102.42 30.72 102.41 42.88 C 100.24 42.88 98.06 42.88 95.89 42.88 C 95.85 30.75 95.96 18.61 95.83 6.48 Z " fill-rule="evenodd" />
        <path d=" M 354.56 2.55 C 356.94 -0.38 361.33 0.35 364.57 1.13 C 368.11 4.4 371.44 7.9 374.86 11.3 C 375.99 12.18 375.44 13.76 375.61 14.96 C 375.56 40.31 375.59 65.65 375.59 90.99 C 371.59 91.01 367.59 91.01 363.59 91 C 363.58 77.5 363.59 64.01 363.59 50.51 C 361.35 50.51 359.13 50.52 356.9 50.53 C 356.9 64.02 356.9 77.51 356.9 91 C 352.9 91.01 348.91 91.01 344.91 90.99 C 345.04 64.66 344.65 38.32 345.11 12.01 C 348.27 8.87 351.42 5.71 354.56 2.55 Z  M 357.09 6.4 C 359.25 6.4 361.42 6.4 363.58 6.4 C 363.59 18.56 363.58 30.72 363.59 42.87 C 361.42 42.88 359.25 42.88 357.09 42.88 C 357.09 30.72 357.08 18.56 357.09 6.4 Z " fill-rule="evenodd" />
        <path d=" M 41.3 0 L 44.74 0 C 49.72 0.23 54.71 0.08 59.69 0.15 C 63.37 3.91 67.11 7.61 70.85 11.32 C 70.89 20.85 70.85 30.37 70.87 39.9 C 68.49 42.29 66.1 44.67 63.72 47.05 C 66.1 49.44 68.49 51.82 70.87 54.21 C 70.86 66.47 70.86 78.74 70.86 91 C 67.08 91.01 63.3 91.01 59.52 91 C 59.51 77.61 59.53 64.22 59.51 50.83 C 57.38 50.83 55.24 50.83 53.11 50.83 C 53.11 64.22 53.11 77.61 53.11 91 C 49.17 91.01 45.23 91.01 41.29 91 C 41.2 60.66 41.19 30.33 41.3 0 Z  M 53.11 7.8 C 55.24 7.8 57.37 7.8 59.51 7.8 C 59.53 19.67 59.51 31.54 59.51 43.41 C 57.38 43.41 55.24 43.41 53.11 43.41 C 53.11 31.54 53.11 19.67 53.11 7.8 Z " fill-rule="evenodd" />
        <path d=" M 305.58 99.25 C 309.7 99.14 313.82 99.18 317.95 99.18 C 317.94 100.7 317.94 102.22 317.94 103.75 C 313.98 103.74 310.02 103.75 306.06 103.74 C 305.81 111.93 305.9 120.13 305.89 128.33 C 308.7 128.33 311.52 128.33 314.34 128.32 C 314.34 129.95 314.34 131.58 314.35 133.21 C 311.53 133.21 308.71 133.21 305.89 133.23 C 305.89 141.63 305.88 150.03 305.89 158.43 C 309.9 158.44 313.92 158.44 317.94 158.44 C 317.94 159.96 317.94 161.48 317.95 163 L 297.98 163 C 297.95 144.31 298.02 125.63 297.94 106.94 C 300.52 104.42 303.09 101.88 305.58 99.25 Z "/>
        <path d=" M 333.05 99.18 C 337.16 99.18 341.26 99.18 345.37 99.18 C 345.31 103.55 345.55 107.93 345.29 112.3 C 343.17 115.43 340.01 117.75 337.45 120.55 C 337.44 114.83 337.45 109.1 337.45 103.38 C 336.01 103.37 334.57 103.37 333.14 103.36 C 333.12 111.59 333.13 119.82 333.13 128.06 C 334.61 128.08 336.09 128.1 337.57 128.13 C 340.14 130.77 342.76 133.37 345.38 135.97 C 345.38 142.37 345.37 148.76 345.38 155.16 C 342.74 157.77 340.19 160.47 337.48 163 L 324.91 163 C 324.91 158.61 324.94 154.23 324.81 149.85 C 327.49 147.04 330.29 144.36 332.88 141.47 C 333.1 147.33 332.94 153.19 333.03 159.05 C 334.49 159.05 335.96 159.04 337.43 159.04 C 337.47 150.14 337.44 141.24 337.44 132.33 C 333.27 132.32 329.09 132.33 324.91 132.32 C 325.1 123.96 324.53 115.54 325.17 107.22 C 327.56 104.31 330.45 101.88 333.05 99.18 Z "/>
        <path d=" M 375.22 99.19 C 379.5 99.18 383.78 99.17 388.07 99.21 C 388.06 100.37 388.06 101.54 388.06 102.71 C 383.82 102.74 379.58 102.73 375.34 102.73 C 375.31 121.13 375.34 139.54 375.33 157.94 C 377.33 157.95 379.34 157.95 381.35 157.95 C 381.36 149.74 381.35 141.53 381.36 133.32 C 380.6 133.3 379.07 133.27 378.31 133.25 C 378.31 132.48 378.31 130.93 378.32 130.16 C 381.56 130.17 384.81 130.16 388.06 130.2 C 388.06 138.53 388.06 146.85 388.06 155.18 C 385.42 157.78 382.88 160.46 380.19 163 L 367.2 163 C 367.2 144.4 367.2 125.81 367.2 107.21 C 369.86 104.53 372.54 101.86 375.22 99.19 Z "/>
        <path d=" M 403.15 99.18 C 407.43 99.18 411.71 99.18 416 99.18 L 416 163 L 407.91 163 C 407.91 144.16 407.9 125.32 407.91 106.48 C 406.35 106.47 404.8 106.46 403.26 106.45 C 403.23 125.3 403.26 144.15 403.25 163 L 395.19 163 C 395.18 144.38 395.2 125.77 395.18 107.15 C 397.83 104.48 400.49 101.83 403.15 99.18 Z "/>
        <path d=" M 352.74 106.16 C 355.12 103.84 357.49 101.51 359.84 99.16 C 359.84 118.27 359.89 137.38 359.82 156.49 C 357.57 158.62 355.45 160.87 353.2 163 L 352.76 163 C 352.71 144.05 352.75 125.11 352.74 106.16 Z "/>
        <path d=" M 268.28 99.18 C 272.76 99.18 277.23 99.18 281.71 99.18 C 284.4 102.12 287.65 104.58 289.98 107.82 C 290.25 122.19 289.97 136.57 290.11 150.95 C 289.93 152.37 290.46 154.16 289.34 155.31 C 286.89 157.98 284.25 160.48 281.64 163 L 268.28 163 C 268.28 141.73 268.28 120.45 268.28 99.18 Z  M 276.78 105.15 C 278.39 105.15 280 105.15 281.61 105.16 C 281.6 122.52 281.62 139.88 281.6 157.24 C 279.99 157.23 278.39 157.23 276.79 157.23 C 276.78 139.87 276.79 122.51 276.78 105.15 Z " fill-rule="evenodd" />
    </symbol>

    <symbol viewBox="0 0 480 480" id="thd-symbol">
        <path d=" M 240.31 0 L 240.71 0 C 240.81 0.53 241.01 1.58 241.11 2.11 C 243.59 3.87 245.59 6.15 247.72 8.29 C 301.47 61.87 355.17 115.48 408.89 169.08 C 432.61 192.68 456.15 216.47 480 239.94 L 480 239.97 C 400.69 319.51 321.03 398.72 241.63 478.17 C 241.34 478.62 240.76 479.54 240.46 480 L 239.34 480 C 237.92 476.81 235.13 474.62 232.75 472.19 C 155.26 394.85 77.7 317.58 0.3 240.15 C 77.6 162.8 155.12 85.68 232.46 8.37 C 235.13 5.64 238.08 3.14 240.31 0 Z "
              fill="rgb(0,0,0)"/>
        <path d=" M 240.14 24.46 C 283.69 68.35 327.67 111.83 371.35 155.58 C 399.58 183.69 427.7 211.9 455.96 239.99 C 384.17 312.02 312.04 383.74 240.12 455.65 C 168.22 383.73 96.05 312.08 24.27 240.04 C 86.64 177.83 149 115.6 211.36 53.36 C 220.93 43.71 230.72 34.26 240.14 24.46 Z "
              />
        <path d=" M 240.16 48.45 C 303.99 112.44 368.12 176.14 432 240.1 C 368.05 303.99 304.08 367.84 240.13 431.73 C 176.13 367.86 112.17 303.95 48.13 240.12 C 104.96 183.6 161.62 126.9 218.39 70.3 C 225.62 63 233.02 55.85 240.16 48.45 Z "
              fill="rgb(0,0,0)"/>
        <path d=" M 174.24 342.1 C 174.32 274.97 174.08 207.84 174.36 140.71 C 217.35 140.8 260.34 140.71 303.33 140.76 C 303.39 202.18 303.33 263.61 303.36 325.03 C 297.44 330.73 291.86 336.8 285.77 342.32 C 285.68 308.67 285.76 275.02 285.73 241.37 C 273 241.3 260.27 241.31 247.54 241.36 C 247.61 269.16 247.48 296.96 247.61 324.76 C 241.72 330.61 235.96 336.61 229.9 342.28 C 229.83 308.63 229.93 274.98 229.85 241.33 C 217.13 241.37 204.42 241.24 191.71 241.4 C 191.76 269.2 191.69 296.99 191.75 324.79 C 185.81 330.46 180.14 336.39 174.24 342.1 Z "
              />
        <path d=" M 191.72 158.42 C 204.43 158.3 217.14 158.39 229.85 158.38 C 229.91 180.34 229.86 202.3 229.87 224.26 C 217.16 224.28 204.45 224.29 191.73 224.25 C 191.71 202.31 191.74 180.37 191.72 158.42 Z "
              fill="rgb(0,0,0)"/>
        <path d=" M 247.56 158.38 C 260.28 158.38 273.01 158.32 285.73 158.42 C 285.72 180.36 285.74 202.3 285.72 224.25 C 273 224.3 260.28 224.26 247.56 224.27 C 247.55 202.31 247.56 180.34 247.56 158.38 Z "
              fill="rgb(0,0,0)"/>
    </symbol>

    <symbol id="thd" viewBox="0 0 474 163" >
        <use href="#thd-symbol" x="0" y="0" width="163" height="163"/>
        <use href="#thd-text" x="182" y="24" width="292" height="115"/>
    </symbol>


    <!-- Soldat logo -->

    <symbol viewBox="0 0 823.411 180.667" id="soldat">
        <mask id="_mask_QBqMyu9ONKVuf7Yh7IIvuIjxfIX1lzVt" x="-200%" y="-200%" width="400%" height="400%">
            <rect x="-200%" y="-200%" width="400%" height="400%" style="fill:white;"/>
            <path d=" M 793.953 36.268 L 822.411 36.268 L 822.411 1.051 L 714.5 1.051 L 714.5 36.268 L 743.135 36.268 L 743.135 118.259 L 744.019 85.223 L 746.758 179.643 L 748.172 179.643 L 750.912 85.223 L 753.387 179.643 L 755.066 179.643 L 757.717 85.223 L 760.28 179.643 L 761.959 179.643 L 764.611 85.223 L 767.174 179.643 L 768.588 179.643 L 771.504 85.223 L 774.067 179.643 L 775.481 179.643 L 778.398 85.223 L 780.961 179.643 L 782.375 179.643 L 785.291 85.223 L 787.766 179.643 L 789.269 179.643 L 792.185 85.223 L 793.953 151.077 L 793.953 36.268 Z  M 633.451 110.845 L 634.954 110.845 L 633.098 97.434 L 633.451 110.845 Z  M 611.799 103.758 L 610.826 110.845 L 611.533 110.845 L 611.799 103.758 Z  M 632.037 110.845 L 626.558 110.845 L 627.53 144.317 L 631.153 144.317 L 632.037 110.845 Z  M 562.925 128.944 L 559.125 149.005 L 560.008 179.643 L 561.423 179.643 L 562.925 128.944 Z  M 618.25 110.845 L 613.036 110.845 L 613.92 144.317 L 617.366 144.317 L 618.25 110.845 Z  M 554.706 171.574 L 553.292 179.643 L 554.529 179.643 L 554.706 171.574 Z  M 690.456 179.643 L 692.665 179.643 L 689.925 165.578 L 690.456 179.643 Z  M 686.125 144.535 L 681.795 122.293 L 683.474 179.643 L 685.065 179.643 L 686.125 144.535 Z  M 680.027 112.698 L 658.993 1.051 L 587.318 1.051 L 571.056 85.877 L 573.707 179.643 L 575.21 179.643 L 577.949 85.441 L 580.424 179.643 L 582.103 179.643 L 584.755 85.441 L 587.318 179.643 L 588.908 179.643 L 591.648 85.441 L 594.211 179.643 L 595.802 179.643 L 598.542 85.441 L 601.105 179.643 L 602.519 179.643 L 605.435 85.441 L 607.203 153.693 L 608.528 144.317 L 610.473 144.317 L 611.533 110.845 L 610.826 110.845 L 611.799 103.758 L 612.329 85.441 L 612.682 97.216 L 620.636 36.268 L 625.32 36.268 L 632.568 92.964 L 632.744 85.441 L 633.098 97.434 L 634.954 110.845 L 633.451 110.845 L 634.424 144.317 L 637.428 144.317 L 637.782 147.479 L 639.638 85.441 L 642.378 179.643 L 643.792 179.643 L 646.531 85.441 L 649.006 179.643 L 650.685 179.643 L 653.425 85.441 L 655.9 179.643 L 657.579 179.643 L 660.23 85.441 L 662.793 179.643 L 664.384 179.643 L 667.124 85.441 L 669.687 179.643 L 671.101 179.643 L 674.017 85.441 L 676.58 179.643 L 677.994 179.643 L 680.027 112.698 Z  M 571.056 86.095 L 565.046 117.604 L 566.902 179.643 L 568.316 179.643 L 571.056 86.095 Z  M 625.144 110.845 L 619.929 110.845 L 620.813 144.317 L 624.26 144.317 L 625.144 110.845 Z  M 479.092 144.317 L 475.468 144.317 L 476.529 179.643 L 478.031 179.643 L 479.092 144.317 Z  M 472.198 144.317 L 468.752 144.317 L 469.724 179.643 L 471.138 179.643 L 472.198 144.317 Z  M 496.679 1.051 L 407.417 1.051 L 407.417 161.326 L 407.947 179.643 L 409.449 179.643 L 412.101 85.005 L 414.84 179.643 L 416.255 179.643 L 418.994 85.005 L 421.734 179.643 L 423.148 179.643 L 425.888 85.005 L 428.451 179.643 L 430.042 179.643 L 432.781 85.005 L 435.256 179.643 L 436.758 179.643 L 439.675 85.005 L 442.15 179.643 L 443.652 179.643 L 446.48 85.005 L 449.043 179.643 L 450.457 179.643 L 453.374 85.005 L 455.937 179.643 L 457.351 179.643 L 458.5 144.317 L 458.235 144.317 L 458.235 32.234 L 479.799 32.234 L 479.799 118.041 L 480.683 85.005 L 483.423 179.643 L 484.925 179.643 L 487.576 85.005 L 490.316 179.643 L 491.73 179.643 L 494.47 85.005 L 497.033 179.643 L 498.624 179.643 L 501.363 85.005 L 503.926 175.608 L 505.517 174.082 L 508.257 85.005 L 510.555 170.048 L 512.588 168.522 L 515.151 85.005 L 517.272 164.705 L 519.658 162.634 L 521.956 85.005 L 523.988 159.145 L 526.905 156.855 L 528.849 85.005 L 530.882 153.475 L 532.473 152.167 L 532.473 26.673 L 496.679 1.051 Z  M 465.305 144.317 L 461.858 144.317 L 462.83 179.643 L 464.244 179.643 L 465.305 144.317 Z  M 362.583 146.17 L 359.136 146.17 L 360.02 179.643 L 361.434 179.643 L 362.583 146.17 Z  M 376.282 146.17 L 372.924 146.17 L 373.807 179.643 L 375.221 179.643 L 376.282 146.17 Z  M 369.477 146.17 L 366.03 146.17 L 366.914 179.643 L 368.328 179.643 L 369.477 146.17 Z  M 342.61 123.819 L 342.61 1.051 L 291.792 1.051 L 291.792 179.643 L 292.852 179.643 L 295.769 85.659 L 298.332 179.643 L 299.746 179.643 L 302.662 85.659 L 305.225 179.643 L 306.639 179.643 L 309.379 85.659 L 312.03 179.643 L 313.533 179.643 L 316.184 85.659 L 318.747 179.643 L 320.426 179.643 L 323.078 85.659 L 325.641 179.643 L 327.232 179.643 L 329.971 85.659 L 332.534 179.643 L 334.125 179.643 L 336.865 85.659 L 339.428 179.643 L 341.019 179.643 L 342.61 123.819 Z  M 348.796 146.17 L 345.349 146.17 L 346.233 179.643 L 347.736 179.643 L 348.796 146.17 Z  M 355.69 146.17 L 352.243 146.17 L 353.127 179.643 L 354.629 179.643 L 355.69 146.17 Z  M 382.999 146.17 L 379.729 146.17 L 380.701 179.643 L 382.115 179.643 L 382.999 146.17 Z  M 388.125 179.643 L 388.125 146.17 L 386.445 146.17 L 387.329 179.643 L 388.125 179.643 Z  M 210.395 146.194 L 206.948 146.194 L 207.92 179.667 L 209.334 179.667 L 210.395 146.194 Z  M 217.288 146.194 L 213.841 146.194 L 214.725 179.667 L 216.228 179.667 L 217.288 146.194 Z  M 203.501 146.194 L 200.054 146.194 L 201.027 179.667 L 202.441 179.667 L 203.501 146.194 Z  M 236.82 1.076 L 179.109 1.076 L 145.436 28.769 L 145.436 152.191 L 148.353 154.917 L 150.297 85.465 L 152.33 158.188 L 155.069 160.695 L 157.191 85.465 L 159.4 164.512 L 161.698 166.474 L 164.084 85.465 L 166.47 170.508 L 168.415 172.253 L 170.978 85.465 L 173.452 176.723 L 175.132 178.14 L 177.871 85.465 L 180.346 179.667 L 182.025 179.667 L 184.676 85.465 L 187.239 179.667 L 188.653 179.667 L 191.57 85.465 L 194.133 179.667 L 195.547 179.667 L 198.464 85.465 L 198.464 86.555 L 198.464 36.292 L 217.465 36.292 L 217.465 135.946 L 218.879 85.465 L 221.619 179.667 L 223.121 179.667 L 225.773 85.465 L 228.512 179.667 L 229.926 179.667 L 232.666 85.465 L 235.229 179.667 L 236.82 179.667 L 239.56 85.465 L 242.123 175.415 L 243.89 173.888 L 246.453 85.465 L 248.751 169.854 L 250.784 168.328 L 253.347 85.465 L 255.468 164.512 L 257.854 162.44 L 260.152 85.465 L 262.185 158.951 L 264.924 156.661 L 267.046 85.465 L 268.902 153.281 L 270.139 152.191 L 270.139 28.769 L 236.82 1.076 Z  M 16.731 120.17 L 11.871 120.17 L 12.931 161.71 L 15.494 163.782 L 16.731 120.17 Z  M 64.721 143.829 L 61.098 143.829 L 61.981 179.591 L 63.661 179.591 L 64.721 143.829 Z  M 57.651 143.829 L 54.381 143.829 L 54.381 120.17 L 53.497 120.17 L 55.088 179.591 L 56.767 179.591 L 57.651 143.829 Z  M 71.615 143.829 L 67.991 143.829 L 69.052 179.591 L 70.466 179.591 L 71.615 143.829 Z  M 121.549 95.856 L 115.186 90.95 L 117.041 160.184 L 119.693 157.894 L 121.549 95.856 Z  M 37.589 120.17 L 32.64 120.17 L 34.319 178.937 L 35.026 179.591 L 35.91 179.591 L 37.589 120.17 Z  M 44.659 120.17 L 39.533 120.17 L 41.212 179.591 L 42.803 179.591 L 44.659 120.17 Z  M 51.464 120.17 L 46.604 120.17 L 48.283 179.591 L 49.697 179.591 L 51.464 120.17 Z  M 23.802 120.17 L 18.764 120.17 L 20.178 167.271 L 22.388 169.124 L 23.802 120.17 Z  M 114.832 90.732 L 108.115 85.607 L 110.325 165.744 L 112.711 163.782 L 114.832 90.732 Z  M 107.938 85.607 L 88.407 70.452 L 54.558 70.125 L 54.381 32.619 L 73.913 32.619 L 73.913 56.605 L 122.079 56.605 L 122.079 24.878 L 90.616 1 L 32.463 1 L 1 26.84 L 1 78.193 L 10.81 86.261 L 10.987 84.735 L 10.987 86.261 L 17.615 91.604 L 17.792 84.735 L 18.057 92.04 L 24.332 97.164 L 24.686 84.735 L 25.039 97.819 L 31.226 102.725 L 31.756 84.735 L 32.286 103.706 L 37.942 108.177 L 38.649 84.735 L 39.356 108.177 L 45.013 108.177 L 45.543 84.735 L 46.25 108.177 L 51.818 108.177 L 52.613 84.735 L 53.144 108.177 L 58.711 108.177 L 59.507 84.735 L 60.214 108.177 L 65.782 108.177 L 66.489 84.735 L 67.107 108.177 L 72.675 108.177 L 73.382 84.735 L 75.945 179.591 L 77.536 179.591 L 80.276 84.735 L 82.839 179.591 L 84.43 179.591 L 87.346 84.735 L 89.909 179.591 L 91.323 179.591 L 94.24 84.735 L 96.714 176.647 L 98.394 175.339 L 101.133 84.735 L 103.431 171.087 L 105.641 169.56 L 107.938 85.607 Z  M 9.838 120.17 L 4.977 120.17 L 5.861 155.932 L 8.777 158.112 L 9.838 120.17 Z  M 3.033 120.17 L 1 120.17 L 1 151.898 L 1.884 152.552 L 3.033 120.17 Z  M 123.935 154.623 L 124.642 153.86 L 124.642 98.364 L 122.256 96.292 L 123.935 154.623 Z  M 30.695 120.17 L 25.834 120.17 L 27.249 173.158 L 29.016 174.685 L 30.695 120.17 Z "
                  fill-rule="evenodd" fill="black" stroke="none"/>
        </mask>
            <path d=" M 793.953 36.268 L 822.411 36.268 L 822.411 1.051 L 714.5 1.051 L 714.5 36.268 L 743.135 36.268 L 743.135 118.259 L 744.019 85.223 L 746.758 179.643 L 748.172 179.643 L 750.912 85.223 L 753.387 179.643 L 755.066 179.643 L 757.717 85.223 L 760.28 179.643 L 761.959 179.643 L 764.611 85.223 L 767.174 179.643 L 768.588 179.643 L 771.504 85.223 L 774.067 179.643 L 775.481 179.643 L 778.398 85.223 L 780.961 179.643 L 782.375 179.643 L 785.291 85.223 L 787.766 179.643 L 789.269 179.643 L 792.185 85.223 L 793.953 151.077 L 793.953 36.268 Z  M 633.451 110.845 L 634.954 110.845 L 633.098 97.434 L 633.451 110.845 Z  M 611.799 103.758 L 610.826 110.845 L 611.533 110.845 L 611.799 103.758 Z  M 632.037 110.845 L 626.558 110.845 L 627.53 144.317 L 631.153 144.317 L 632.037 110.845 Z  M 562.925 128.944 L 559.125 149.005 L 560.008 179.643 L 561.423 179.643 L 562.925 128.944 Z  M 618.25 110.845 L 613.036 110.845 L 613.92 144.317 L 617.366 144.317 L 618.25 110.845 Z  M 554.706 171.574 L 553.292 179.643 L 554.529 179.643 L 554.706 171.574 Z  M 690.456 179.643 L 692.665 179.643 L 689.925 165.578 L 690.456 179.643 Z  M 686.125 144.535 L 681.795 122.293 L 683.474 179.643 L 685.065 179.643 L 686.125 144.535 Z  M 680.027 112.698 L 658.993 1.051 L 587.318 1.051 L 571.056 85.877 L 573.707 179.643 L 575.21 179.643 L 577.949 85.441 L 580.424 179.643 L 582.103 179.643 L 584.755 85.441 L 587.318 179.643 L 588.908 179.643 L 591.648 85.441 L 594.211 179.643 L 595.802 179.643 L 598.542 85.441 L 601.105 179.643 L 602.519 179.643 L 605.435 85.441 L 607.203 153.693 L 608.528 144.317 L 610.473 144.317 L 611.533 110.845 L 610.826 110.845 L 611.799 103.758 L 612.329 85.441 L 612.682 97.216 L 620.636 36.268 L 625.32 36.268 L 632.568 92.964 L 632.744 85.441 L 633.098 97.434 L 634.954 110.845 L 633.451 110.845 L 634.424 144.317 L 637.428 144.317 L 637.782 147.479 L 639.638 85.441 L 642.378 179.643 L 643.792 179.643 L 646.531 85.441 L 649.006 179.643 L 650.685 179.643 L 653.425 85.441 L 655.9 179.643 L 657.579 179.643 L 660.23 85.441 L 662.793 179.643 L 664.384 179.643 L 667.124 85.441 L 669.687 179.643 L 671.101 179.643 L 674.017 85.441 L 676.58 179.643 L 677.994 179.643 L 680.027 112.698 Z  M 571.056 86.095 L 565.046 117.604 L 566.902 179.643 L 568.316 179.643 L 571.056 86.095 Z  M 625.144 110.845 L 619.929 110.845 L 620.813 144.317 L 624.26 144.317 L 625.144 110.845 Z  M 479.092 144.317 L 475.468 144.317 L 476.529 179.643 L 478.031 179.643 L 479.092 144.317 Z  M 472.198 144.317 L 468.752 144.317 L 469.724 179.643 L 471.138 179.643 L 472.198 144.317 Z  M 496.679 1.051 L 407.417 1.051 L 407.417 161.326 L 407.947 179.643 L 409.449 179.643 L 412.101 85.005 L 414.84 179.643 L 416.255 179.643 L 418.994 85.005 L 421.734 179.643 L 423.148 179.643 L 425.888 85.005 L 428.451 179.643 L 430.042 179.643 L 432.781 85.005 L 435.256 179.643 L 436.758 179.643 L 439.675 85.005 L 442.15 179.643 L 443.652 179.643 L 446.48 85.005 L 449.043 179.643 L 450.457 179.643 L 453.374 85.005 L 455.937 179.643 L 457.351 179.643 L 458.5 144.317 L 458.235 144.317 L 458.235 32.234 L 479.799 32.234 L 479.799 118.041 L 480.683 85.005 L 483.423 179.643 L 484.925 179.643 L 487.576 85.005 L 490.316 179.643 L 491.73 179.643 L 494.47 85.005 L 497.033 179.643 L 498.624 179.643 L 501.363 85.005 L 503.926 175.608 L 505.517 174.082 L 508.257 85.005 L 510.555 170.048 L 512.588 168.522 L 515.151 85.005 L 517.272 164.705 L 519.658 162.634 L 521.956 85.005 L 523.988 159.145 L 526.905 156.855 L 528.849 85.005 L 530.882 153.475 L 532.473 152.167 L 532.473 26.673 L 496.679 1.051 Z  M 465.305 144.317 L 461.858 144.317 L 462.83 179.643 L 464.244 179.643 L 465.305 144.317 Z  M 362.583 146.17 L 359.136 146.17 L 360.02 179.643 L 361.434 179.643 L 362.583 146.17 Z  M 376.282 146.17 L 372.924 146.17 L 373.807 179.643 L 375.221 179.643 L 376.282 146.17 Z  M 369.477 146.17 L 366.03 146.17 L 366.914 179.643 L 368.328 179.643 L 369.477 146.17 Z  M 342.61 123.819 L 342.61 1.051 L 291.792 1.051 L 291.792 179.643 L 292.852 179.643 L 295.769 85.659 L 298.332 179.643 L 299.746 179.643 L 302.662 85.659 L 305.225 179.643 L 306.639 179.643 L 309.379 85.659 L 312.03 179.643 L 313.533 179.643 L 316.184 85.659 L 318.747 179.643 L 320.426 179.643 L 323.078 85.659 L 325.641 179.643 L 327.232 179.643 L 329.971 85.659 L 332.534 179.643 L 334.125 179.643 L 336.865 85.659 L 339.428 179.643 L 341.019 179.643 L 342.61 123.819 Z  M 348.796 146.17 L 345.349 146.17 L 346.233 179.643 L 347.736 179.643 L 348.796 146.17 Z  M 355.69 146.17 L 352.243 146.17 L 353.127 179.643 L 354.629 179.643 L 355.69 146.17 Z  M 382.999 146.17 L 379.729 146.17 L 380.701 179.643 L 382.115 179.643 L 382.999 146.17 Z  M 388.125 179.643 L 388.125 146.17 L 386.445 146.17 L 387.329 179.643 L 388.125 179.643 Z  M 210.395 146.194 L 206.948 146.194 L 207.92 179.667 L 209.334 179.667 L 210.395 146.194 Z  M 217.288 146.194 L 213.841 146.194 L 214.725 179.667 L 216.228 179.667 L 217.288 146.194 Z  M 203.501 146.194 L 200.054 146.194 L 201.027 179.667 L 202.441 179.667 L 203.501 146.194 Z  M 236.82 1.076 L 179.109 1.076 L 145.436 28.769 L 145.436 152.191 L 148.353 154.917 L 150.297 85.465 L 152.33 158.188 L 155.069 160.695 L 157.191 85.465 L 159.4 164.512 L 161.698 166.474 L 164.084 85.465 L 166.47 170.508 L 168.415 172.253 L 170.978 85.465 L 173.452 176.723 L 175.132 178.14 L 177.871 85.465 L 180.346 179.667 L 182.025 179.667 L 184.676 85.465 L 187.239 179.667 L 188.653 179.667 L 191.57 85.465 L 194.133 179.667 L 195.547 179.667 L 198.464 85.465 L 198.464 86.555 L 198.464 36.292 L 217.465 36.292 L 217.465 135.946 L 218.879 85.465 L 221.619 179.667 L 223.121 179.667 L 225.773 85.465 L 228.512 179.667 L 229.926 179.667 L 232.666 85.465 L 235.229 179.667 L 236.82 179.667 L 239.56 85.465 L 242.123 175.415 L 243.89 173.888 L 246.453 85.465 L 248.751 169.854 L 250.784 168.328 L 253.347 85.465 L 255.468 164.512 L 257.854 162.44 L 260.152 85.465 L 262.185 158.951 L 264.924 156.661 L 267.046 85.465 L 268.902 153.281 L 270.139 152.191 L 270.139 28.769 L 236.82 1.076 Z  M 16.731 120.17 L 11.871 120.17 L 12.931 161.71 L 15.494 163.782 L 16.731 120.17 Z  M 64.721 143.829 L 61.098 143.829 L 61.981 179.591 L 63.661 179.591 L 64.721 143.829 Z  M 57.651 143.829 L 54.381 143.829 L 54.381 120.17 L 53.497 120.17 L 55.088 179.591 L 56.767 179.591 L 57.651 143.829 Z  M 71.615 143.829 L 67.991 143.829 L 69.052 179.591 L 70.466 179.591 L 71.615 143.829 Z  M 121.549 95.856 L 115.186 90.95 L 117.041 160.184 L 119.693 157.894 L 121.549 95.856 Z  M 37.589 120.17 L 32.64 120.17 L 34.319 178.937 L 35.026 179.591 L 35.91 179.591 L 37.589 120.17 Z  M 44.659 120.17 L 39.533 120.17 L 41.212 179.591 L 42.803 179.591 L 44.659 120.17 Z  M 51.464 120.17 L 46.604 120.17 L 48.283 179.591 L 49.697 179.591 L 51.464 120.17 Z  M 23.802 120.17 L 18.764 120.17 L 20.178 167.271 L 22.388 169.124 L 23.802 120.17 Z  M 114.832 90.732 L 108.115 85.607 L 110.325 165.744 L 112.711 163.782 L 114.832 90.732 Z  M 107.938 85.607 L 88.407 70.452 L 54.558 70.125 L 54.381 32.619 L 73.913 32.619 L 73.913 56.605 L 122.079 56.605 L 122.079 24.878 L 90.616 1 L 32.463 1 L 1 26.84 L 1 78.193 L 10.81 86.261 L 10.987 84.735 L 10.987 86.261 L 17.615 91.604 L 17.792 84.735 L 18.057 92.04 L 24.332 97.164 L 24.686 84.735 L 25.039 97.819 L 31.226 102.725 L 31.756 84.735 L 32.286 103.706 L 37.942 108.177 L 38.649 84.735 L 39.356 108.177 L 45.013 108.177 L 45.543 84.735 L 46.25 108.177 L 51.818 108.177 L 52.613 84.735 L 53.144 108.177 L 58.711 108.177 L 59.507 84.735 L 60.214 108.177 L 65.782 108.177 L 66.489 84.735 L 67.107 108.177 L 72.675 108.177 L 73.382 84.735 L 75.945 179.591 L 77.536 179.591 L 80.276 84.735 L 82.839 179.591 L 84.43 179.591 L 87.346 84.735 L 89.909 179.591 L 91.323 179.591 L 94.24 84.735 L 96.714 176.647 L 98.394 175.339 L 101.133 84.735 L 103.431 171.087 L 105.641 169.56 L 107.938 85.607 Z  M 9.838 120.17 L 4.977 120.17 L 5.861 155.932 L 8.777 158.112 L 9.838 120.17 Z  M 3.033 120.17 L 1 120.17 L 1 151.898 L 1.884 152.552 L 3.033 120.17 Z  M 123.935 154.623 L 124.642 153.86 L 124.642 98.364 L 122.256 96.292 L 123.935 154.623 Z  M 30.695 120.17 L 25.834 120.17 L 27.249 173.158 L 29.016 174.685 L 30.695 120.17 Z "
                  fill-rule="evenodd" mask="url(#_mask_QBqMyu9ONKVuf7Yh7IIvuIjxfIX1lzVt)"
                  vector-effect="non-scaling-stroke" stroke-width="2" stroke="rgb(0,0,0)" stroke-opacity="0.35"
                  stroke-linejoin="miter" stroke-linecap="square" stroke-miterlimit="3"/>
            <path d=" M 793.953 36.268 L 822.411 36.268 L 822.411 1.051 L 714.5 1.051 L 714.5 36.268 L 743.135 36.268 L 743.135 118.259 L 744.019 85.223 L 746.758 179.643 L 748.172 179.643 L 750.912 85.223 L 753.387 179.643 L 755.066 179.643 L 757.717 85.223 L 760.28 179.643 L 761.959 179.643 L 764.611 85.223 L 767.174 179.643 L 768.588 179.643 L 771.504 85.223 L 774.067 179.643 L 775.481 179.643 L 778.398 85.223 L 780.961 179.643 L 782.375 179.643 L 785.291 85.223 L 787.766 179.643 L 789.269 179.643 L 792.185 85.223 L 793.953 151.077 L 793.953 36.268 Z  M 633.451 110.845 L 634.954 110.845 L 633.098 97.434 L 633.451 110.845 Z  M 611.799 103.758 L 610.826 110.845 L 611.533 110.845 L 611.799 103.758 Z  M 632.037 110.845 L 626.558 110.845 L 627.53 144.317 L 631.153 144.317 L 632.037 110.845 Z  M 562.925 128.944 L 559.125 149.005 L 560.008 179.643 L 561.423 179.643 L 562.925 128.944 Z  M 618.25 110.845 L 613.036 110.845 L 613.92 144.317 L 617.366 144.317 L 618.25 110.845 Z  M 554.706 171.574 L 553.292 179.643 L 554.529 179.643 L 554.706 171.574 Z  M 690.456 179.643 L 692.665 179.643 L 689.925 165.578 L 690.456 179.643 Z  M 686.125 144.535 L 681.795 122.293 L 683.474 179.643 L 685.065 179.643 L 686.125 144.535 Z  M 680.027 112.698 L 658.993 1.051 L 587.318 1.051 L 571.056 85.877 L 573.707 179.643 L 575.21 179.643 L 577.949 85.441 L 580.424 179.643 L 582.103 179.643 L 584.755 85.441 L 587.318 179.643 L 588.908 179.643 L 591.648 85.441 L 594.211 179.643 L 595.802 179.643 L 598.542 85.441 L 601.105 179.643 L 602.519 179.643 L 605.435 85.441 L 607.203 153.693 L 608.528 144.317 L 610.473 144.317 L 611.533 110.845 L 610.826 110.845 L 611.799 103.758 L 612.329 85.441 L 612.682 97.216 L 620.636 36.268 L 625.32 36.268 L 632.568 92.964 L 632.744 85.441 L 633.098 97.434 L 634.954 110.845 L 633.451 110.845 L 634.424 144.317 L 637.428 144.317 L 637.782 147.479 L 639.638 85.441 L 642.378 179.643 L 643.792 179.643 L 646.531 85.441 L 649.006 179.643 L 650.685 179.643 L 653.425 85.441 L 655.9 179.643 L 657.579 179.643 L 660.23 85.441 L 662.793 179.643 L 664.384 179.643 L 667.124 85.441 L 669.687 179.643 L 671.101 179.643 L 674.017 85.441 L 676.58 179.643 L 677.994 179.643 L 680.027 112.698 Z  M 571.056 86.095 L 565.046 117.604 L 566.902 179.643 L 568.316 179.643 L 571.056 86.095 Z  M 625.144 110.845 L 619.929 110.845 L 620.813 144.317 L 624.26 144.317 L 625.144 110.845 Z  M 479.092 144.317 L 475.468 144.317 L 476.529 179.643 L 478.031 179.643 L 479.092 144.317 Z  M 472.198 144.317 L 468.752 144.317 L 469.724 179.643 L 471.138 179.643 L 472.198 144.317 Z  M 496.679 1.051 L 407.417 1.051 L 407.417 161.326 L 407.947 179.643 L 409.449 179.643 L 412.101 85.005 L 414.84 179.643 L 416.255 179.643 L 418.994 85.005 L 421.734 179.643 L 423.148 179.643 L 425.888 85.005 L 428.451 179.643 L 430.042 179.643 L 432.781 85.005 L 435.256 179.643 L 436.758 179.643 L 439.675 85.005 L 442.15 179.643 L 443.652 179.643 L 446.48 85.005 L 449.043 179.643 L 450.457 179.643 L 453.374 85.005 L 455.937 179.643 L 457.351 179.643 L 458.5 144.317 L 458.235 144.317 L 458.235 32.234 L 479.799 32.234 L 479.799 118.041 L 480.683 85.005 L 483.423 179.643 L 484.925 179.643 L 487.576 85.005 L 490.316 179.643 L 491.73 179.643 L 494.47 85.005 L 497.033 179.643 L 498.624 179.643 L 501.363 85.005 L 503.926 175.608 L 505.517 174.082 L 508.257 85.005 L 510.555 170.048 L 512.588 168.522 L 515.151 85.005 L 517.272 164.705 L 519.658 162.634 L 521.956 85.005 L 523.988 159.145 L 526.905 156.855 L 528.849 85.005 L 530.882 153.475 L 532.473 152.167 L 532.473 26.673 L 496.679 1.051 Z  M 465.305 144.317 L 461.858 144.317 L 462.83 179.643 L 464.244 179.643 L 465.305 144.317 Z  M 362.583 146.17 L 359.136 146.17 L 360.02 179.643 L 361.434 179.643 L 362.583 146.17 Z  M 376.282 146.17 L 372.924 146.17 L 373.807 179.643 L 375.221 179.643 L 376.282 146.17 Z  M 369.477 146.17 L 366.03 146.17 L 366.914 179.643 L 368.328 179.643 L 369.477 146.17 Z  M 342.61 123.819 L 342.61 1.051 L 291.792 1.051 L 291.792 179.643 L 292.852 179.643 L 295.769 85.659 L 298.332 179.643 L 299.746 179.643 L 302.662 85.659 L 305.225 179.643 L 306.639 179.643 L 309.379 85.659 L 312.03 179.643 L 313.533 179.643 L 316.184 85.659 L 318.747 179.643 L 320.426 179.643 L 323.078 85.659 L 325.641 179.643 L 327.232 179.643 L 329.971 85.659 L 332.534 179.643 L 334.125 179.643 L 336.865 85.659 L 339.428 179.643 L 341.019 179.643 L 342.61 123.819 Z  M 348.796 146.17 L 345.349 146.17 L 346.233 179.643 L 347.736 179.643 L 348.796 146.17 Z  M 355.69 146.17 L 352.243 146.17 L 353.127 179.643 L 354.629 179.643 L 355.69 146.17 Z  M 382.999 146.17 L 379.729 146.17 L 380.701 179.643 L 382.115 179.643 L 382.999 146.17 Z  M 388.125 179.643 L 388.125 146.17 L 386.445 146.17 L 387.329 179.643 L 388.125 179.643 Z  M 210.395 146.194 L 206.948 146.194 L 207.92 179.667 L 209.334 179.667 L 210.395 146.194 Z  M 217.288 146.194 L 213.841 146.194 L 214.725 179.667 L 216.228 179.667 L 217.288 146.194 Z  M 203.501 146.194 L 200.054 146.194 L 201.027 179.667 L 202.441 179.667 L 203.501 146.194 Z  M 236.82 1.076 L 179.109 1.076 L 145.436 28.769 L 145.436 152.191 L 148.353 154.917 L 150.297 85.465 L 152.33 158.188 L 155.069 160.695 L 157.191 85.465 L 159.4 164.512 L 161.698 166.474 L 164.084 85.465 L 166.47 170.508 L 168.415 172.253 L 170.978 85.465 L 173.452 176.723 L 175.132 178.14 L 177.871 85.465 L 180.346 179.667 L 182.025 179.667 L 184.676 85.465 L 187.239 179.667 L 188.653 179.667 L 191.57 85.465 L 194.133 179.667 L 195.547 179.667 L 198.464 85.465 L 198.464 86.555 L 198.464 36.292 L 217.465 36.292 L 217.465 135.946 L 218.879 85.465 L 221.619 179.667 L 223.121 179.667 L 225.773 85.465 L 228.512 179.667 L 229.926 179.667 L 232.666 85.465 L 235.229 179.667 L 236.82 179.667 L 239.56 85.465 L 242.123 175.415 L 243.89 173.888 L 246.453 85.465 L 248.751 169.854 L 250.784 168.328 L 253.347 85.465 L 255.468 164.512 L 257.854 162.44 L 260.152 85.465 L 262.185 158.951 L 264.924 156.661 L 267.046 85.465 L 268.902 153.281 L 270.139 152.191 L 270.139 28.769 L 236.82 1.076 Z  M 16.731 120.17 L 11.871 120.17 L 12.931 161.71 L 15.494 163.782 L 16.731 120.17 Z  M 64.721 143.829 L 61.098 143.829 L 61.981 179.591 L 63.661 179.591 L 64.721 143.829 Z  M 57.651 143.829 L 54.381 143.829 L 54.381 120.17 L 53.497 120.17 L 55.088 179.591 L 56.767 179.591 L 57.651 143.829 Z  M 71.615 143.829 L 67.991 143.829 L 69.052 179.591 L 70.466 179.591 L 71.615 143.829 Z  M 121.549 95.856 L 115.186 90.95 L 117.041 160.184 L 119.693 157.894 L 121.549 95.856 Z  M 37.589 120.17 L 32.64 120.17 L 34.319 178.937 L 35.026 179.591 L 35.91 179.591 L 37.589 120.17 Z  M 44.659 120.17 L 39.533 120.17 L 41.212 179.591 L 42.803 179.591 L 44.659 120.17 Z  M 51.464 120.17 L 46.604 120.17 L 48.283 179.591 L 49.697 179.591 L 51.464 120.17 Z  M 23.802 120.17 L 18.764 120.17 L 20.178 167.271 L 22.388 169.124 L 23.802 120.17 Z  M 114.832 90.732 L 108.115 85.607 L 110.325 165.744 L 112.711 163.782 L 114.832 90.732 Z  M 107.938 85.607 L 88.407 70.452 L 54.558 70.125 L 54.381 32.619 L 73.913 32.619 L 73.913 56.605 L 122.079 56.605 L 122.079 24.878 L 90.616 1 L 32.463 1 L 1 26.84 L 1 78.193 L 10.81 86.261 L 10.987 84.735 L 10.987 86.261 L 17.615 91.604 L 17.792 84.735 L 18.057 92.04 L 24.332 97.164 L 24.686 84.735 L 25.039 97.819 L 31.226 102.725 L 31.756 84.735 L 32.286 103.706 L 37.942 108.177 L 38.649 84.735 L 39.356 108.177 L 45.013 108.177 L 45.543 84.735 L 46.25 108.177 L 51.818 108.177 L 52.613 84.735 L 53.144 108.177 L 58.711 108.177 L 59.507 84.735 L 60.214 108.177 L 65.782 108.177 L 66.489 84.735 L 67.107 108.177 L 72.675 108.177 L 73.382 84.735 L 75.945 179.591 L 77.536 179.591 L 80.276 84.735 L 82.839 179.591 L 84.43 179.591 L 87.346 84.735 L 89.909 179.591 L 91.323 179.591 L 94.24 84.735 L 96.714 176.647 L 98.394 175.339 L 101.133 84.735 L 103.431 171.087 L 105.641 169.56 L 107.938 85.607 Z  M 9.838 120.17 L 4.977 120.17 L 5.861 155.932 L 8.777 158.112 L 9.838 120.17 Z  M 3.033 120.17 L 1 120.17 L 1 151.898 L 1.884 152.552 L 3.033 120.17 Z  M 123.935 154.623 L 124.642 153.86 L 124.642 98.364 L 122.256 96.292 L 123.935 154.623 Z  M 30.695 120.17 L 25.834 120.17 L 27.249 173.158 L 29.016 174.685 L 30.695 120.17 Z "
                  fill-rule="evenodd"/>

    </symbol>

    <!-- Steam logo -->

    <symbol viewBox="0 0 122.044 123.364" id="steam-symbol">
                <path d=" M 60.917 0 C 28.807 0 2.5 24.986 0 56.736 L 32.764 70.404 C 35.542 68.488 38.894 67.37 42.5 67.37 C 42.827 67.37 43.146 67.378 43.464 67.395 L 58.035 46.085 C 58.035 45.985 58.035 45.886 58.035 45.783 C 58.035 32.959 68.376 22.523 81.088 22.523 C 93.796 22.523 104.137 32.959 104.137 45.783 C 104.137 58.611 93.796 69.046 81.088 69.046 C 80.91 69.046 80.736 69.042 80.562 69.038 L 59.782 84.002 C 59.795 84.275 59.803 84.553 59.803 84.826 C 59.803 94.455 52.041 102.291 42.5 102.291 C 34.126 102.291 27.122 96.255 25.536 88.266 L 2.107 78.493 C 9.363 104.385 32.934 123.364 60.917 123.364 C 94.674 123.364 122.044 95.746 122.044 61.682 C 122.044 27.615 94.674 0 60.917 0 Z "/>
                <path d=" M 38.308 93.594 L 30.799 90.464 C 32.132 93.259 34.433 95.597 37.488 96.885 C 44.095 99.662 51.716 96.5 54.468 89.827 C 55.801 86.598 55.81 83.038 54.489 79.801 C 53.169 76.564 50.677 74.043 47.477 72.694 C 44.298 71.361 40.895 71.411 37.906 72.549 L 45.664 75.786 C 50.536 77.835 52.842 83.481 50.809 88.399 C 48.781 93.317 43.18 95.643 38.308 93.594 Z "/>
                <path d=" M 96.446 45.785 C 96.446 37.237 89.554 30.282 81.084 30.282 C 72.615 30.282 65.727 37.237 65.727 45.785 C 65.727 54.333 72.615 61.283 81.084 61.283 C 89.554 61.283 96.446 54.333 96.446 45.785 Z  M 69.573 45.756 C 69.573 39.327 74.739 34.116 81.113 34.116 C 87.484 34.116 92.65 39.327 92.65 45.756 C 92.65 52.188 87.484 57.4 81.113 57.4 C 74.739 57.4 69.573 52.188 69.573 45.756 Z "/>

    </symbol>

    <symbol viewBox="0 0 243.546 46.623" id="steam-text">
                <path d=" M 31.916 4.417 L 27.942 11.462 C 24.883 9.306 20.735 8.01 17.117 8.01 C 12.978 8.01 10.419 9.736 10.419 12.832 C 10.419 16.595 14.965 17.469 21.724 19.919 C 28.993 22.51 33.166 25.557 33.166 32.271 C 33.166 41.461 26.009 46.623 15.718 46.623 C 10.701 46.623 4.649 45.315 0 42.459 L 2.898 34.647 C 6.677 36.663 11.193 37.855 15.225 37.855 C 20.656 37.855 23.239 35.831 23.239 32.843 C 23.239 29.423 19.299 28.393 12.945 26.273 C 5.705 23.831 0.688 20.631 0.688 13.197 C 0.688 4.818 7.34 0 16.91 0 C 23.579 0 28.939 2.136 31.916 4.417 Z "/>
                <path d=" M 62.97 8.871 L 62.97 45.849 L 53.619 45.849 L 53.619 8.871 L 40.037 8.871 L 40.037 0.774 L 76.51 0.774 L 76.51 8.871 L 62.97 8.871 Z "/>
                <path d=" M 96.227 8.846 L 96.227 19.005 L 114.13 19.005 L 114.13 27.097 L 96.227 27.097 L 96.227 37.678 L 116.998 37.678 L 116.998 45.849 L 86.876 45.849 L 86.876 0.775 L 116.998 0.775 L 116.998 8.846 L 96.227 8.846 Z "/>
                <path d=" M 137.875 37.097 L 134.919 45.848 L 125.113 45.848 L 141.861 0.774 L 151.275 0.774 L 168.499 45.848 L 158.357 45.848 L 155.339 37.097 L 137.875 37.097 Z  M 146.514 11.528 L 140.417 29.576 L 152.74 29.576 L 146.514 11.528 Z "/>
                <path d=" M 216.502 18.197 L 204.278 44.536 L 199 44.536 L 186.975 18.433 L 186.975 45.849 L 178.017 45.849 L 178.017 0.774 L 186.955 0.774 L 201.968 33.31 L 216.444 0.774 L 225.46 0.774 L 225.46 45.849 L 216.502 45.849 L 216.502 18.197 Z "/>
                <path d=" M 243.546 6.461 C 243.546 10.336 240.669 12.749 237.365 12.749 C 234.054 12.749 231.169 10.336 231.169 6.461 C 231.169 2.587 234.054 0.19 237.365 0.19 C 240.669 0.19 243.546 2.587 243.546 6.461 Z  M 232.212 6.461 C 232.212 9.703 234.522 11.739 237.365 11.739 C 240.201 11.739 242.503 9.703 242.503 6.461 C 242.503 3.212 240.201 1.204 237.365 1.204 C 234.53 1.204 232.212 3.237 232.212 6.461 Z  M 237.452 3.257 C 239.054 3.257 239.592 4.11 239.592 5.037 C 239.592 5.882 239.096 6.449 238.487 6.739 L 239.924 9.454 L 238.748 9.454 L 237.539 7.049 L 236.293 7.049 L 236.293 9.454 L 235.312 9.454 L 235.312 3.257 L 237.452 3.257 Z  M 236.302 6.138 L 237.394 6.138 C 238.098 6.138 238.516 5.691 238.516 5.128 C 238.516 4.561 238.218 4.197 237.39 4.197 L 236.302 4.197 L 236.302 6.138 Z "/>
    </symbol>
      
    <symbol viewBox="0 0 443 123" id="steam-btn">
          <use href="#steam-symbol" x="0" y="0" width="122" height="123"/>
          <use href="#steam-text" x="200" y="70" width="243" height="47"/>
    </symbol>

    <symbol id="steam" viewBox="0 0 397 123">
        <use href="#steam-symbol" x="0" y="0" width="122" height="123"/>
        <use href="#steam-text" x="154" y="38" width="243" height="47"/>
    </symbol>
  </defs>
</svg>
