    <svg viewBox="0 0 823.411 180.667" version="1.1" xmlns="http://www.w3.org/2000/svg" xmlns:xlink="http://www.w3.org/1999/xlink">
    <mask id="_mask_QBqMyu9ONKVuf7Yh7IIvuIjxfIX1lzVt" x="-200%" y="-200%" width="400%" height="400%">
            <rect x="-200%" y="-200%" width="400%" height="400%" style="fill:white;"/>
            <path d=" M 793.953 36.268 L 822.411 36.268 L 822.411 1.051 L 714.5 1.051 L 714.5 36.268 L 743.135 36.268 L 743.135 118.259 L 744.019 85.223 L 746.758 179.643 L 748.172 179.643 L 750.912 85.223 L 753.387 179.643 L 755.066 179.643 L 757.717 85.223 L 760.28 179.643 L 761.959 179.643 L 764.611 85.223 L 767.174 179.643 L 768.588 179.643 L 771.504 85.223 L 774.067 179.643 L 775.481 179.643 L 778.398 85.223 L 780.961 179.643 L 782.375 179.643 L 785.291 85.223 L 787.766 179.643 L 789.269 179.643 L 792.185 85.223 L 793.953 151.077 L 793.953 36.268 Z  M 633.451 110.845 L 634.954 110.845 L 633.098 97.434 L 633.451 110.845 Z  M 611.799 103.758 L 610.826 110.845 L 611.533 110.845 L 611.799 103.758 Z  M 632.037 110.845 L 626.558 110.845 L 627.53 144.317 L 631.153 144.317 L 632.037 110.845 Z  M 562.925 128.944 L 559.125 149.005 L 560.008 179.643 L 561.423 179.643 L 562.925 128.944 Z  M 618.25 110.845 L 613.036 110.845 L 613.92 144.317 L 617.366 144.317 L 618.25 110.845 Z  M 554.706 171.574 L 553.292 179.643 L 554.529 179.643 L 554.706 171.574 Z  M 690.456 179.643 L 692.665 179.643 L 689.925 165.578 L 690.456 179.643 Z  M 686.125 144.535 L 681.795 122.293 L 683.474 179.643 L 685.065 179.643 L 686.125 144.535 Z  M 680.027 112.698 L 658.993 1.051 L 587.318 1.051 L 571.056 85.877 L 573.707 179.643 L 575.21 179.643 L 577.949 85.441 L 580.424 179.643 L 582.103 179.643 L 584.755 85.441 L 587.318 179.643 L 588.908 179.643 L 591.648 85.441 L 594.211 179.643 L 595.802 179.643 L 598.542 85.441 L 601.105 179.643 L 602.519 179.643 L 605.435 85.441 L 607.203 153.693 L 608.528 144.317 L 610.473 144.317 L 611.533 110.845 L 610.826 110.845 L 611.799 103.758 L 612.329 85.441 L 612.682 97.216 L 620.636 36.268 L 625.32 36.268 L 632.568 92.964 L 632.744 85.441 L 633.098 97.434 L 634.954 110.845 L 633.451 110.845 L 634.424 144.317 L 637.428 144.317 L 637.782 147.479 L 639.638 85.441 L 642.378 179.643 L 643.792 179.643 L 646.531 85.441 L 649.006 179.643 L 650.685 179.643 L 653.425 85.441 L 655.9 179.643 L 657.579 179.643 L 660.23 85.441 L 662.793 179.643 L 664.384 179.643 L 667.124 85.441 L 669.687 179.643 L 671.101 179.643 L 674.017 85.441 L 676.58 179.643 L 677.994 179.643 L 680.027 112.698 Z  M 571.056 86.095 L 565.046 117.604 L 566.902 179.643 L 568.316 179.643 L 571.056 86.095 Z  M 625.144 110.845 L 619.929 110.845 L 620.813 144.317 L 624.26 144.317 L 625.144 110.845 Z  M 479.092 144.317 L 475.468 144.317 L 476.529 179.643 L 478.031 179.643 L 479.092 144.317 Z  M 472.198 144.317 L 468.752 144.317 L 469.724 179.643 L 471.138 179.643 L 472.198 144.317 Z  M 496.679 1.051 L 407.417 1.051 L 407.417 161.326 L 407.947 179.643 L 409.449 179.643 L 412.101 85.005 L 414.84 179.643 L 416.255 179.643 L 418.994 85.005 L 421.734 179.643 L 423.148 179.643 L 425.888 85.005 L 428.451 179.643 L 430.042 179.643 L 432.781 85.005 L 435.256 179.643 L 436.758 179.643 L 439.675 85.005 L 442.15 179.643 L 443.652 179.643 L 446.48 85.005 L 449.043 179.643 L 450.457 179.643 L 453.374 85.005 L 455.937 179.643 L 457.351 179.643 L 458.5 144.317 L 458.235 144.317 L 458.235 32.234 L 479.799 32.234 L 479.799 118.041 L 480.683 85.005 L 483.423 179.643 L 484.925 179.643 L 487.576 85.005 L 490.316 179.643 L 491.73 179.643 L 494.47 85.005 L 497.033 179.643 L 498.624 179.643 L 501.363 85.005 L 503.926 175.608 L 505.517 174.082 L 508.257 85.005 L 510.555 170.048 L 512.588 168.522 L 515.151 85.005 L 517.272 164.705 L 519.658 162.634 L 521.956 85.005 L 523.988 159.145 L 526.905 156.855 L 528.849 85.005 L 530.882 153.475 L 532.473 152.167 L 532.473 26.673 L 496.679 1.051 Z  M 465.305 144.317 L 461.858 144.317 L 462.83 179.643 L 464.244 179.643 L 465.305 144.317 Z  M 362.583 146.17 L 359.136 146.17 L 360.02 179.643 L 361.434 179.643 L 362.583 146.17 Z  M 376.282 146.17 L 372.924 146.17 L 373.807 179.643 L 375.221 179.643 L 376.282 146.17 Z  M 369.477 146.17 L 366.03 146.17 L 366.914 179.643 L 368.328 179.643 L 369.477 146.17 Z  M 342.61 123.819 L 342.61 1.051 L 291.792 1.051 L 291.792 179.643 L 292.852 179.643 L 295.769 85.659 L 298.332 179.643 L 299.746 179.643 L 302.662 85.659 L 305.225 179.643 L 306.639 179.643 L 309.379 85.659 L 312.03 179.643 L 313.533 179.643 L 316.184 85.659 L 318.747 179.643 L 320.426 179.643 L 323.078 85.659 L 325.641 179.643 L 327.232 179.643 L 329.971 85.659 L 332.534 179.643 L 334.125 179.643 L 336.865 85.659 L 339.428 179.643 L 341.019 179.643 L 342.61 123.819 Z  M 348.796 146.17 L 345.349 146.17 L 346.233 179.643 L 347.736 179.643 L 348.796 146.17 Z  M 355.69 146.17 L 352.243 146.17 L 353.127 179.643 L 354.629 179.643 L 355.69 146.17 Z  M 382.999 146.17 L 379.729 146.17 L 380.701 179.643 L 382.115 179.643 L 382.999 146.17 Z  M 388.125 179.643 L 388.125 146.17 L 386.445 146.17 L 387.329 179.643 L 388.125 179.643 Z  M 210.395 146.194 L 206.948 146.194 L 207.92 179.667 L 209.334 179.667 L 210.395 146.194 Z  M 217.288 146.194 L 213.841 146.194 L 214.725 179.667 L 216.228 179.667 L 217.288 146.194 Z  M 203.501 146.194 L 200.054 146.194 L 201.027 179.667 L 202.441 179.667 L 203.501 146.194 Z  M 236.82 1.076 L 179.109 1.076 L 145.436 28.769 L 145.436 152.191 L 148.353 154.917 L 150.297 85.465 L 152.33 158.188 L 155.069 160.695 L 157.191 85.465 L 159.4 164.512 L 161.698 166.474 L 164.084 85.465 L 166.47 170.508 L 168.415 172.253 L 170.978 85.465 L 173.452 176.723 L 175.132 178.14 L 177.871 85.465 L 180.346 179.667 L 182.025 179.667 L 184.676 85.465 L 187.239 179.667 L 188.653 179.667 L 191.57 85.465 L 194.133 179.667 L 195.547 179.667 L 198.464 85.465 L 198.464 86.555 L 198.464 36.292 L 217.465 36.292 L 217.465 135.946 L 218.879 85.465 L 221.619 179.667 L 223.121 179.667 L 225.773 85.465 L 228.512 179.667 L 229.926 179.667 L 232.666 85.465 L 235.229 179.667 L 236.82 179.667 L 239.56 85.465 L 242.123 175.415 L 243.89 173.888 L 246.453 85.465 L 248.751 169.854 L 250.784 168.328 L 253.347 85.465 L 255.468 164.512 L 257.854 162.44 L 260.152 85.465 L 262.185 158.951 L 264.924 156.661 L 267.046 85.465 L 268.902 153.281 L 270.139 152.191 L 270.139 28.769 L 236.82 1.076 Z  M 16.731 120.17 L 11.871 120.17 L 12.931 161.71 L 15.494 163.782 L 16.731 120.17 Z  M 64.721 143.829 L 61.098 143.829 L 61.981 179.591 L 63.661 179.591 L 64.721 143.829 Z  M 57.651 143.829 L 54.381 143.829 L 54.381 120.17 L 53.497 120.17 L 55.088 179.591 L 56.767 179.591 L 57.651 143.829 Z  M 71.615 143.829 L 67.991 143.829 L 69.052 179.591 L 70.466 179.591 L 71.615 143.829 Z  M 121.549 95.856 L 115.186 90.95 L 117.041 160.184 L 119.693 157.894 L 121.549 95.856 Z  M 37.589 120.17 L 32.64 120.17 L 34.319 178.937 L 35.026 179.591 L 35.91 179.591 L 37.589 120.17 Z  M 44.659 120.17 L 39.533 120.17 L 41.212 179.591 L 42.803 179.591 L 44.659 120.17 Z  M 51.464 120.17 L 46.604 120.17 L 48.283 179.591 L 49.697 179.591 L 51.464 120.17 Z  M 23.802 120.17 L 18.764 120.17 L 20.178 167.271 L 22.388 169.124 L 23.802 120.17 Z  M 114.832 90.732 L 108.115 85.607 L 110.325 165.744 L 112.711 163.782 L 114.832 90.732 Z  M 107.938 85.607 L 88.407 70.452 L 54.558 70.125 L 54.381 32.619 L 73.913 32.619 L 73.913 56.605 L 122.079 56.605 L 122.079 24.878 L 90.616 1 L 32.463 1 L 1 26.84 L 1 78.193 L 10.81 86.261 L 10.987 84.735 L 10.987 86.261 L 17.615 91.604 L 17.792 84.735 L 18.057 92.04 L 24.332 97.164 L 24.686 84.735 L 25.039 97.819 L 31.226 102.725 L 31.756 84.735 L 32.286 103.706 L 37.942 108.177 L 38.649 84.735 L 39.356 108.177 L 45.013 108.177 L 45.543 84.735 L 46.25 108.177 L 51.818 108.177 L 52.613 84.735 L 53.144 108.177 L 58.711 108.177 L 59.507 84.735 L 60.214 108.177 L 65.782 108.177 L 66.489 84.735 L 67.107 108.177 L 72.675 108.177 L 73.382 84.735 L 75.945 179.591 L 77.536 179.591 L 80.276 84.735 L 82.839 179.591 L 84.43 179.591 L 87.346 84.735 L 89.909 179.591 L 91.323 179.591 L 94.24 84.735 L 96.714 176.647 L 98.394 175.339 L 101.133 84.735 L 103.431 171.087 L 105.641 169.56 L 107.938 85.607 Z  M 9.838 120.17 L 4.977 120.17 L 5.861 155.932 L 8.777 158.112 L 9.838 120.17 Z  M 3.033 120.17 L 1 120.17 L 1 151.898 L 1.884 152.552 L 3.033 120.17 Z  M 123.935 154.623 L 124.642 153.86 L 124.642 98.364 L 122.256 96.292 L 123.935 154.623 Z  M 30.695 120.17 L 25.834 120.17 L 27.249 173.158 L 29.016 174.685 L 30.695 120.17 Z "
                  fill-rule="evenodd" fill="black" stroke="none"/>
        </mask>
            <path d=" M 793.953 36.268 L 822.411 36.268 L 822.411 1.051 L 714.5 1.051 L 714.5 36.268 L 743.135 36.268 L 743.135 118.259 L 744.019 85.223 L 746.758 179.643 L 748.172 179.643 L 750.912 85.223 L 753.387 179.643 L 755.066 179.643 L 757.717 85.223 L 760.28 179.643 L 761.959 179.643 L 764.611 85.223 L 767.174 179.643 L 768.588 179.643 L 771.504 85.223 L 774.067 179.643 L 775.481 179.643 L 778.398 85.223 L 780.961 179.643 L 782.375 179.643 L 785.291 85.223 L 787.766 179.643 L 789.269 179.643 L 792.185 85.223 L 793.953 151.077 L 793.953 36.268 Z  M 633.451 110.845 L 634.954 110.845 L 633.098 97.434 L 633.451 110.845 Z  M 611.799 103.758 L 610.826 110.845 L 611.533 110.845 L 611.799 103.758 Z  M 632.037 110.845 L 626.558 110.845 L 627.53 144.317 L 631.153 144.317 L 632.037 110.845 Z  M 562.925 128.944 L 559.125 149.005 L 560.008 179.643 L 561.423 179.643 L 562.925 128.944 Z  M 618.25 110.845 L 613.036 110.845 L 613.92 144.317 L 617.366 144.317 L 618.25 110.845 Z  M 554.706 171.574 L 553.292 179.643 L 554.529 179.643 L 554.706 171.574 Z  M 690.456 179.643 L 692.665 179.643 L 689.925 165.578 L 690.456 179.643 Z  M 686.125 144.535 L 681.795 122.293 L 683.474 179.643 L 685.065 179.643 L 686.125 144.535 Z  M 680.027 112.698 L 658.993 1.051 L 587.318 1.051 L 571.056 85.877 L 573.707 179.643 L 575.21 179.643 L 577.949 85.441 L 580.424 179.643 L 582.103 179.643 L 584.755 85.441 L 587.318 179.643 L 588.908 179.643 L 591.648 85.441 L 594.211 179.643 L 595.802 179.643 L 598.542 85.441 L 601.105 179.643 L 602.519 179.643 L 605.435 85.441 L 607.203 153.693 L 608.528 144.317 L 610.473 144.317 L 611.533 110.845 L 610.826 110.845 L 611.799 103.758 L 612.329 85.441 L 612.682 97.216 L 620.636 36.268 L 625.32 36.268 L 632.568 92.964 L 632.744 85.441 L 633.098 97.434 L 634.954 110.845 L 633.451 110.845 L 634.424 144.317 L 637.428 144.317 L 637.782 147.479 L 639.638 85.441 L 642.378 179.643 L 643.792 179.643 L 646.531 85.441 L 649.006 179.643 L 650.685 179.643 L 653.425 85.441 L 655.9 179.643 L 657.579 179.643 L 660.23 85.441 L 662.793 179.643 L 664.384 179.643 L 667.124 85.441 L 669.687 179.643 L 671.101 179.643 L 674.017 85.441 L 676.58 179.643 L 677.994 179.643 L 680.027 112.698 Z  M 571.056 86.095 L 565.046 117.604 L 566.902 179.643 L 568.316 179.643 L 571.056 86.095 Z  M 625.144 110.845 L 619.929 110.845 L 620.813 144.317 L 624.26 144.317 L 625.144 110.845 Z  M 479.092 144.317 L 475.468 144.317 L 476.529 179.643 L 478.031 179.643 L 479.092 144.317 Z  M 472.198 144.317 L 468.752 144.317 L 469.724 179.643 L 471.138 179.643 L 472.198 144.317 Z  M 496.679 1.051 L 407.417 1.051 L 407.417 161.326 L 407.947 179.643 L 409.449 179.643 L 412.101 85.005 L 414.84 179.643 L 416.255 179.643 L 418.994 85.005 L 421.734 179.643 L 423.148 179.643 L 425.888 85.005 L 428.451 179.643 L 430.042 179.643 L 432.781 85.005 L 435.256 179.643 L 436.758 179.643 L 439.675 85.005 L 442.15 179.643 L 443.652 179.643 L 446.48 85.005 L 449.043 179.643 L 450.457 179.643 L 453.374 85.005 L 455.937 179.643 L 457.351 179.643 L 458.5 144.317 L 458.235 144.317 L 458.235 32.234 L 479.799 32.234 L 479.799 118.041 L 480.683 85.005 L 483.423 179.643 L 484.925 179.643 L 487.576 85.005 L 490.316 179.643 L 491.73 179.643 L 494.47 85.005 L 497.033 179.643 L 498.624 179.643 L 501.363 85.005 L 503.926 175.608 L 505.517 174.082 L 508.257 85.005 L 510.555 170.048 L 512.588 168.522 L 515.151 85.005 L 517.272 164.705 L 519.658 162.634 L 521.956 85.005 L 523.988 159.145 L 526.905 156.855 L 528.849 85.005 L 530.882 153.475 L 532.473 152.167 L 532.473 26.673 L 496.679 1.051 Z  M 465.305 144.317 L 461.858 144.317 L 462.83 179.643 L 464.244 179.643 L 465.305 144.317 Z  M 362.583 146.17 L 359.136 146.17 L 360.02 179.643 L 361.434 179.643 L 362.583 146.17 Z  M 376.282 146.17 L 372.924 146.17 L 373.807 179.643 L 375.221 179.643 L 376.282 146.17 Z  M 369.477 146.17 L 366.03 146.17 L 366.914 179.643 L 368.328 179.643 L 369.477 146.17 Z  M 342.61 123.819 L 342.61 1.051 L 291.792 1.051 L 291.792 179.643 L 292.852 179.643 L 295.769 85.659 L 298.332 179.643 L 299.746 179.643 L 302.662 85.659 L 305.225 179.643 L 306.639 179.643 L 309.379 85.659 L 312.03 179.643 L 313.533 179.643 L 316.184 85.659 L 318.747 179.643 L 320.426 179.643 L 323.078 85.659 L 325.641 179.643 L 327.232 179.643 L 329.971 85.659 L 332.534 179.643 L 334.125 179.643 L 336.865 85.659 L 339.428 179.643 L 341.019 179.643 L 342.61 123.819 Z  M 348.796 146.17 L 345.349 146.17 L 346.233 179.643 L 347.736 179.643 L 348.796 146.17 Z  M 355.69 146.17 L 352.243 146.17 L 353.127 179.643 L 354.629 179.643 L 355.69 146.17 Z  M 382.999 146.17 L 379.729 146.17 L 380.701 179.643 L 382.115 179.643 L 382.999 146.17 Z  M 388.125 179.643 L 388.125 146.17 L 386.445 146.17 L 387.329 179.643 L 388.125 179.643 Z  M 210.395 146.194 L 206.948 146.194 L 207.92 179.667 L 209.334 179.667 L 210.395 146.194 Z  M 217.288 146.194 L 213.841 146.194 L 214.725 179.667 L 216.228 179.667 L 217.288 146.194 Z  M 203.501 146.194 L 200.054 146.194 L 201.027 179.667 L 202.441 179.667 L 203.501 146.194 Z  M 236.82 1.076 L 179.109 1.076 L 145.436 28.769 L 145.436 152.191 L 148.353 154.917 L 150.297 85.465 L 152.33 158.188 L 155.069 160.695 L 157.191 85.465 L 159.4 164.512 L 161.698 166.474 L 164.084 85.465 L 166.47 170.508 L 168.415 172.253 L 170.978 85.465 L 173.452 176.723 L 175.132 178.14 L 177.871 85.465 L 180.346 179.667 L 182.025 179.667 L 184.676 85.465 L 187.239 179.667 L 188.653 179.667 L 191.57 85.465 L 194.133 179.667 L 195.547 179.667 L 198.464 85.465 L 198.464 86.555 L 198.464 36.292 L 217.465 36.292 L 217.465 135.946 L 218.879 85.465 L 221.619 179.667 L 223.121 179.667 L 225.773 85.465 L 228.512 179.667 L 229.926 179.667 L 232.666 85.465 L 235.229 179.667 L 236.82 179.667 L 239.56 85.465 L 242.123 175.415 L 243.89 173.888 L 246.453 85.465 L 248.751 169.854 L 250.784 168.328 L 253.347 85.465 L 255.468 164.512 L 257.854 162.44 L 260.152 85.465 L 262.185 158.951 L 264.924 156.661 L 267.046 85.465 L 268.902 153.281 L 270.139 152.191 L 270.139 28.769 L 236.82 1.076 Z  M 16.731 120.17 L 11.871 120.17 L 12.931 161.71 L 15.494 163.782 L 16.731 120.17 Z  M 64.721 143.829 L 61.098 143.829 L 61.981 179.591 L 63.661 179.591 L 64.721 143.829 Z  M 57.651 143.829 L 54.381 143.829 L 54.381 120.17 L 53.497 120.17 L 55.088 179.591 L 56.767 179.591 L 57.651 143.829 Z  M 71.615 143.829 L 67.991 143.829 L 69.052 179.591 L 70.466 179.591 L 71.615 143.829 Z  M 121.549 95.856 L 115.186 90.95 L 117.041 160.184 L 119.693 157.894 L 121.549 95.856 Z  M 37.589 120.17 L 32.64 120.17 L 34.319 178.937 L 35.026 179.591 L 35.91 179.591 L 37.589 120.17 Z  M 44.659 120.17 L 39.533 120.17 L 41.212 179.591 L 42.803 179.591 L 44.659 120.17 Z  M 51.464 120.17 L 46.604 120.17 L 48.283 179.591 L 49.697 179.591 L 51.464 120.17 Z  M 23.802 120.17 L 18.764 120.17 L 20.178 167.271 L 22.388 169.124 L 23.802 120.17 Z  M 114.832 90.732 L 108.115 85.607 L 110.325 165.744 L 112.711 163.782 L 114.832 90.732 Z  M 107.938 85.607 L 88.407 70.452 L 54.558 70.125 L 54.381 32.619 L 73.913 32.619 L 73.913 56.605 L 122.079 56.605 L 122.079 24.878 L 90.616 1 L 32.463 1 L 1 26.84 L 1 78.193 L 10.81 86.261 L 10.987 84.735 L 10.987 86.261 L 17.615 91.604 L 17.792 84.735 L 18.057 92.04 L 24.332 97.164 L 24.686 84.735 L 25.039 97.819 L 31.226 102.725 L 31.756 84.735 L 32.286 103.706 L 37.942 108.177 L 38.649 84.735 L 39.356 108.177 L 45.013 108.177 L 45.543 84.735 L 46.25 108.177 L 51.818 108.177 L 52.613 84.735 L 53.144 108.177 L 58.711 108.177 L 59.507 84.735 L 60.214 108.177 L 65.782 108.177 L 66.489 84.735 L 67.107 108.177 L 72.675 108.177 L 73.382 84.735 L 75.945 179.591 L 77.536 179.591 L 80.276 84.735 L 82.839 179.591 L 84.43 179.591 L 87.346 84.735 L 89.909 179.591 L 91.323 179.591 L 94.24 84.735 L 96.714 176.647 L 98.394 175.339 L 101.133 84.735 L 103.431 171.087 L 105.641 169.56 L 107.938 85.607 Z  M 9.838 120.17 L 4.977 120.17 L 5.861 155.932 L 8.777 158.112 L 9.838 120.17 Z  M 3.033 120.17 L 1 120.17 L 1 151.898 L 1.884 152.552 L 3.033 120.17 Z  M 123.935 154.623 L 124.642 153.86 L 124.642 98.364 L 122.256 96.292 L 123.935 154.623 Z  M 30.695 120.17 L 25.834 120.17 L 27.249 173.158 L 29.016 174.685 L 30.695 120.17 Z "
                  fill-rule="evenodd" mask="url(#_mask_QBqMyu9ONKVuf7Yh7IIvuIjxfIX1lzVt)"
                  vector-effect="non-scaling-stroke" stroke-width="2" stroke="rgb(0,0,0)" stroke-opacity="0.35"
                  stroke-linejoin="miter" stroke-linecap="square" stroke-miterlimit="3"/>
            <path d=" M 793.953 36.268 L 822.411 36.268 L 822.411 1.051 L 714.5 1.051 L 714.5 36.268 L 743.135 36.268 L 743.135 118.259 L 744.019 85.223 L 746.758 179.643 L 748.172 179.643 L 750.912 85.223 L 753.387 179.643 L 755.066 179.643 L 757.717 85.223 L 760.28 179.643 L 761.959 179.643 L 764.611 85.223 L 767.174 179.643 L 768.588 179.643 L 771.504 85.223 L 774.067 179.643 L 775.481 179.643 L 778.398 85.223 L 780.961 179.643 L 782.375 179.643 L 785.291 85.223 L 787.766 179.643 L 789.269 179.643 L 792.185 85.223 L 793.953 151.077 L 793.953 36.268 Z  M 633.451 110.845 L 634.954 110.845 L 633.098 97.434 L 633.451 110.845 Z  M 611.799 103.758 L 610.826 110.845 L 611.533 110.845 L 611.799 103.758 Z  M 632.037 110.845 L 626.558 110.845 L 627.53 144.317 L 631.153 144.317 L 632.037 110.845 Z  M 562.925 128.944 L 559.125 149.005 L 560.008 179.643 L 561.423 179.643 L 562.925 128.944 Z  M 618.25 110.845 L 613.036 110.845 L 613.92 144.317 L 617.366 144.317 L 618.25 110.845 Z  M 554.706 171.574 L 553.292 179.643 L 554.529 179.643 L 554.706 171.574 Z  M 690.456 179.643 L 692.665 179.643 L 689.925 165.578 L 690.456 179.643 Z  M 686.125 144.535 L 681.795 122.293 L 683.474 179.643 L 685.065 179.643 L 686.125 144.535 Z  M 680.027 112.698 L 658.993 1.051 L 587.318 1.051 L 571.056 85.877 L 573.707 179.643 L 575.21 179.643 L 577.949 85.441 L 580.424 179.643 L 582.103 179.643 L 584.755 85.441 L 587.318 179.643 L 588.908 179.643 L 591.648 85.441 L 594.211 179.643 L 595.802 179.643 L 598.542 85.441 L 601.105 179.643 L 602.519 179.643 L 605.435 85.441 L 607.203 153.693 L 608.528 144.317 L 610.473 144.317 L 611.533 110.845 L 610.826 110.845 L 611.799 103.758 L 612.329 85.441 L 612.682 97.216 L 620.636 36.268 L 625.32 36.268 L 632.568 92.964 L 632.744 85.441 L 633.098 97.434 L 634.954 110.845 L 633.451 110.845 L 634.424 144.317 L 637.428 144.317 L 637.782 147.479 L 639.638 85.441 L 642.378 179.643 L 643.792 179.643 L 646.531 85.441 L 649.006 179.643 L 650.685 179.643 L 653.425 85.441 L 655.9 179.643 L 657.579 179.643 L 660.23 85.441 L 662.793 179.643 L 664.384 179.643 L 667.124 85.441 L 669.687 179.643 L 671.101 179.643 L 674.017 85.441 L 676.58 179.643 L 677.994 179.643 L 680.027 112.698 Z  M 571.056 86.095 L 565.046 117.604 L 566.902 179.643 L 568.316 179.643 L 571.056 86.095 Z  M 625.144 110.845 L 619.929 110.845 L 620.813 144.317 L 624.26 144.317 L 625.144 110.845 Z  M 479.092 144.317 L 475.468 144.317 L 476.529 179.643 L 478.031 179.643 L 479.092 144.317 Z  M 472.198 144.317 L 468.752 144.317 L 469.724 179.643 L 471.138 179.643 L 472.198 144.317 Z  M 496.679 1.051 L 407.417 1.051 L 407.417 161.326 L 407.947 179.643 L 409.449 179.643 L 412.101 85.005 L 414.84 179.643 L 416.255 179.643 L 418.994 85.005 L 421.734 179.643 L 423.148 179.643 L 425.888 85.005 L 428.451 179.643 L 430.042 179.643 L 432.781 85.005 L 435.256 179.643 L 436.758 179.643 L 439.675 85.005 L 442.15 179.643 L 443.652 179.643 L 446.48 85.005 L 449.043 179.643 L 450.457 179.643 L 453.374 85.005 L 455.937 179.643 L 457.351 179.643 L 458.5 144.317 L 458.235 144.317 L 458.235 32.234 L 479.799 32.234 L 479.799 118.041 L 480.683 85.005 L 483.423 179.643 L 484.925 179.643 L 487.576 85.005 L 490.316 179.643 L 491.73 179.643 L 494.47 85.005 L 497.033 179.643 L 498.624 179.643 L 501.363 85.005 L 503.926 175.608 L 505.517 174.082 L 508.257 85.005 L 510.555 170.048 L 512.588 168.522 L 515.151 85.005 L 517.272 164.705 L 519.658 162.634 L 521.956 85.005 L 523.988 159.145 L 526.905 156.855 L 528.849 85.005 L 530.882 153.475 L 532.473 152.167 L 532.473 26.673 L 496.679 1.051 Z  M 465.305 144.317 L 461.858 144.317 L 462.83 179.643 L 464.244 179.643 L 465.305 144.317 Z  M 362.583 146.17 L 359.136 146.17 L 360.02 179.643 L 361.434 179.643 L 362.583 146.17 Z  M 376.282 146.17 L 372.924 146.17 L 373.807 179.643 L 375.221 179.643 L 376.282 146.17 Z  M 369.477 146.17 L 366.03 146.17 L 366.914 179.643 L 368.328 179.643 L 369.477 146.17 Z  M 342.61 123.819 L 342.61 1.051 L 291.792 1.051 L 291.792 179.643 L 292.852 179.643 L 295.769 85.659 L 298.332 179.643 L 299.746 179.643 L 302.662 85.659 L 305.225 179.643 L 306.639 179.643 L 309.379 85.659 L 312.03 179.643 L 313.533 179.643 L 316.184 85.659 L 318.747 179.643 L 320.426 179.643 L 323.078 85.659 L 325.641 179.643 L 327.232 179.643 L 329.971 85.659 L 332.534 179.643 L 334.125 179.643 L 336.865 85.659 L 339.428 179.643 L 341.019 179.643 L 342.61 123.819 Z  M 348.796 146.17 L 345.349 146.17 L 346.233 179.643 L 347.736 179.643 L 348.796 146.17 Z  M 355.69 146.17 L 352.243 146.17 L 353.127 179.643 L 354.629 179.643 L 355.69 146.17 Z  M 382.999 146.17 L 379.729 146.17 L 380.701 179.643 L 382.115 179.643 L 382.999 146.17 Z  M 388.125 179.643 L 388.125 146.17 L 386.445 146.17 L 387.329 179.643 L 388.125 179.643 Z  M 210.395 146.194 L 206.948 146.194 L 207.92 179.667 L 209.334 179.667 L 210.395 146.194 Z  M 217.288 146.194 L 213.841 146.194 L 214.725 179.667 L 216.228 179.667 L 217.288 146.194 Z  M 203.501 146.194 L 200.054 146.194 L 201.027 179.667 L 202.441 179.667 L 203.501 146.194 Z  M 236.82 1.076 L 179.109 1.076 L 145.436 28.769 L 145.436 152.191 L 148.353 154.917 L 150.297 85.465 L 152.33 158.188 L 155.069 160.695 L 157.191 85.465 L 159.4 164.512 L 161.698 166.474 L 164.084 85.465 L 166.47 170.508 L 168.415 172.253 L 170.978 85.465 L 173.452 176.723 L 175.132 178.14 L 177.871 85.465 L 180.346 179.667 L 182.025 179.667 L 184.676 85.465 L 187.239 179.667 L 188.653 179.667 L 191.57 85.465 L 194.133 179.667 L 195.547 179.667 L 198.464 85.465 L 198.464 86.555 L 198.464 36.292 L 217.465 36.292 L 217.465 135.946 L 218.879 85.465 L 221.619 179.667 L 223.121 179.667 L 225.773 85.465 L 228.512 179.667 L 229.926 179.667 L 232.666 85.465 L 235.229 179.667 L 236.82 179.667 L 239.56 85.465 L 242.123 175.415 L 243.89 173.888 L 246.453 85.465 L 248.751 169.854 L 250.784 168.328 L 253.347 85.465 L 255.468 164.512 L 257.854 162.44 L 260.152 85.465 L 262.185 158.951 L 264.924 156.661 L 267.046 85.465 L 268.902 153.281 L 270.139 152.191 L 270.139 28.769 L 236.82 1.076 Z  M 16.731 120.17 L 11.871 120.17 L 12.931 161.71 L 15.494 163.782 L 16.731 120.17 Z  M 64.721 143.829 L 61.098 143.829 L 61.981 179.591 L 63.661 179.591 L 64.721 143.829 Z  M 57.651 143.829 L 54.381 143.829 L 54.381 120.17 L 53.497 120.17 L 55.088 179.591 L 56.767 179.591 L 57.651 143.829 Z  M 71.615 143.829 L 67.991 143.829 L 69.052 179.591 L 70.466 179.591 L 71.615 143.829 Z  M 121.549 95.856 L 115.186 90.95 L 117.041 160.184 L 119.693 157.894 L 121.549 95.856 Z  M 37.589 120.17 L 32.64 120.17 L 34.319 178.937 L 35.026 179.591 L 35.91 179.591 L 37.589 120.17 Z  M 44.659 120.17 L 39.533 120.17 L 41.212 179.591 L 42.803 179.591 L 44.659 120.17 Z  M 51.464 120.17 L 46.604 120.17 L 48.283 179.591 L 49.697 179.591 L 51.464 120.17 Z  M 23.802 120.17 L 18.764 120.17 L 20.178 167.271 L 22.388 169.124 L 23.802 120.17 Z  M 114.832 90.732 L 108.115 85.607 L 110.325 165.744 L 112.711 163.782 L 114.832 90.732 Z  M 107.938 85.607 L 88.407 70.452 L 54.558 70.125 L 54.381 32.619 L 73.913 32.619 L 73.913 56.605 L 122.079 56.605 L 122.079 24.878 L 90.616 1 L 32.463 1 L 1 26.84 L 1 78.193 L 10.81 86.261 L 10.987 84.735 L 10.987 86.261 L 17.615 91.604 L 17.792 84.735 L 18.057 92.04 L 24.332 97.164 L 24.686 84.735 L 25.039 97.819 L 31.226 102.725 L 31.756 84.735 L 32.286 103.706 L 37.942 108.177 L 38.649 84.735 L 39.356 108.177 L 45.013 108.177 L 45.543 84.735 L 46.25 108.177 L 51.818 108.177 L 52.613 84.735 L 53.144 108.177 L 58.711 108.177 L 59.507 84.735 L 60.214 108.177 L 65.782 108.177 L 66.489 84.735 L 67.107 108.177 L 72.675 108.177 L 73.382 84.735 L 75.945 179.591 L 77.536 179.591 L 80.276 84.735 L 82.839 179.591 L 84.43 179.591 L 87.346 84.735 L 89.909 179.591 L 91.323 179.591 L 94.24 84.735 L 96.714 176.647 L 98.394 175.339 L 101.133 84.735 L 103.431 171.087 L 105.641 169.56 L 107.938 85.607 Z  M 9.838 120.17 L 4.977 120.17 L 5.861 155.932 L 8.777 158.112 L 9.838 120.17 Z  M 3.033 120.17 L 1 120.17 L 1 151.898 L 1.884 152.552 L 3.033 120.17 Z  M 123.935 154.623 L 124.642 153.86 L 124.642 98.364 L 122.256 96.292 L 123.935 154.623 Z  M 30.695 120.17 L 25.834 120.17 L 27.249 173.158 L 29.016 174.685 L 30.695 120.17 Z "
                  fill-rule="evenodd"/>
</svg>