
 
<svg viewBox="0 0 443 123" version="1.1" xmlns="http://www.w3.org/2000/svg" xmlns:xlink="http://www.w3.org/1999/xlink">
    <symbol viewBox="0 0 243.546 46.623" id="steam-text">
                <path d=" M 31.916 4.417 L 27.942 11.462 C 24.883 9.306 20.735 8.01 17.117 8.01 C 12.978 8.01 10.419 9.736 10.419 12.832 C 10.419 16.595 14.965 17.469 21.724 19.919 C 28.993 22.51 33.166 25.557 33.166 32.271 C 33.166 41.461 26.009 46.623 15.718 46.623 C 10.701 46.623 4.649 45.315 0 42.459 L 2.898 34.647 C 6.677 36.663 11.193 37.855 15.225 37.855 C 20.656 37.855 23.239 35.831 23.239 32.843 C 23.239 29.423 19.299 28.393 12.945 26.273 C 5.705 23.831 0.688 20.631 0.688 13.197 C 0.688 4.818 7.34 0 16.91 0 C 23.579 0 28.939 2.136 31.916 4.417 Z "/>
                <path d=" M 62.97 8.871 L 62.97 45.849 L 53.619 45.849 L 53.619 8.871 L 40.037 8.871 L 40.037 0.774 L 76.51 0.774 L 76.51 8.871 L 62.97 8.871 Z "/>
                <path d=" M 96.227 8.846 L 96.227 19.005 L 114.13 19.005 L 114.13 27.097 L 96.227 27.097 L 96.227 37.678 L 116.998 37.678 L 116.998 45.849 L 86.876 45.849 L 86.876 0.775 L 116.998 0.775 L 116.998 8.846 L 96.227 8.846 Z "/>
                <path d=" M 137.875 37.097 L 134.919 45.848 L 125.113 45.848 L 141.861 0.774 L 151.275 0.774 L 168.499 45.848 L 158.357 45.848 L 155.339 37.097 L 137.875 37.097 Z  M 146.514 11.528 L 140.417 29.576 L 152.74 29.576 L 146.514 11.528 Z "/>
                <path d=" M 216.502 18.197 L 204.278 44.536 L 199 44.536 L 186.975 18.433 L 186.975 45.849 L 178.017 45.849 L 178.017 0.774 L 186.955 0.774 L 201.968 33.31 L 216.444 0.774 L 225.46 0.774 L 225.46 45.849 L 216.502 45.849 L 216.502 18.197 Z "/>
                <path d=" M 243.546 6.461 C 243.546 10.336 240.669 12.749 237.365 12.749 C 234.054 12.749 231.169 10.336 231.169 6.461 C 231.169 2.587 234.054 0.19 237.365 0.19 C 240.669 0.19 243.546 2.587 243.546 6.461 Z  M 232.212 6.461 C 232.212 9.703 234.522 11.739 237.365 11.739 C 240.201 11.739 242.503 9.703 242.503 6.461 C 242.503 3.212 240.201 1.204 237.365 1.204 C 234.53 1.204 232.212 3.237 232.212 6.461 Z  M 237.452 3.257 C 239.054 3.257 239.592 4.11 239.592 5.037 C 239.592 5.882 239.096 6.449 238.487 6.739 L 239.924 9.454 L 238.748 9.454 L 237.539 7.049 L 236.293 7.049 L 236.293 9.454 L 235.312 9.454 L 235.312 3.257 L 237.452 3.257 Z  M 236.302 6.138 L 237.394 6.138 C 238.098 6.138 238.516 5.691 238.516 5.128 C 238.516 4.561 238.218 4.197 237.39 4.197 L 236.302 4.197 L 236.302 6.138 Z "/>
    </symbol>
    <symbol viewBox="0 0 122.044 123.364" id="steam-symbol">
                <path d=" M 60.917 0 C 28.807 0 2.5 24.986 0 56.736 L 32.764 70.404 C 35.542 68.488 38.894 67.37 42.5 67.37 C 42.827 67.37 43.146 67.378 43.464 67.395 L 58.035 46.085 C 58.035 45.985 58.035 45.886 58.035 45.783 C 58.035 32.959 68.376 22.523 81.088 22.523 C 93.796 22.523 104.137 32.959 104.137 45.783 C 104.137 58.611 93.796 69.046 81.088 69.046 C 80.91 69.046 80.736 69.042 80.562 69.038 L 59.782 84.002 C 59.795 84.275 59.803 84.553 59.803 84.826 C 59.803 94.455 52.041 102.291 42.5 102.291 C 34.126 102.291 27.122 96.255 25.536 88.266 L 2.107 78.493 C 9.363 104.385 32.934 123.364 60.917 123.364 C 94.674 123.364 122.044 95.746 122.044 61.682 C 122.044 27.615 94.674 0 60.917 0 Z "/>
                <path d=" M 38.308 93.594 L 30.799 90.464 C 32.132 93.259 34.433 95.597 37.488 96.885 C 44.095 99.662 51.716 96.5 54.468 89.827 C 55.801 86.598 55.81 83.038 54.489 79.801 C 53.169 76.564 50.677 74.043 47.477 72.694 C 44.298 71.361 40.895 71.411 37.906 72.549 L 45.664 75.786 C 50.536 77.835 52.842 83.481 50.809 88.399 C 48.781 93.317 43.18 95.643 38.308 93.594 Z "/>
                <path d=" M 96.446 45.785 C 96.446 37.237 89.554 30.282 81.084 30.282 C 72.615 30.282 65.727 37.237 65.727 45.785 C 65.727 54.333 72.615 61.283 81.084 61.283 C 89.554 61.283 96.446 54.333 96.446 45.785 Z  M 69.573 45.756 C 69.573 39.327 74.739 34.116 81.113 34.116 C 87.484 34.116 92.65 39.327 92.65 45.756 C 92.65 52.188 87.484 57.4 81.113 57.4 C 74.739 57.4 69.573 52.188 69.573 45.756 Z "/>
</symbol>
<use href="#steam-symbol" x="0" y="0" width="122" height="123"/>
          <use href="#steam-text" x="200" y="70" width="243" height="47"/>

</svg>