<svg viewBox="0 0 474 163" version="1.1" xmlns="http://www.w3.org/2000/svg" xmlns:xlink="http://www.w3.org/1999/xlink">
   <symbol viewBox="0 0 416 163" id="thd_text">
        <path d=" M 136.84 0 L 154.9 0 C 154.93 30.33 154.9 60.67 154.91 91 C 151.12 91.01 147.33 91.01 143.53 91 C 143.53 64.17 143.54 37.35 143.53 10.52 C 141.28 10.52 139.05 10.52 136.81 10.52 C 136.8 37.35 136.8 64.17 136.81 91 C 132.98 91.01 129.15 91.01 125.32 91 C 125.34 64.49 125.3 37.98 125.34 11.48 C 129.21 7.69 132.98 3.8 136.84 0 Z "/>
        <path d=" M 215.31 0 L 215.66 0 C 216.13 15.09 215.73 30.21 215.87 45.31 C 217.96 45.31 220.05 45.31 222.14 45.31 C 222.17 30.21 222.09 15.11 222.19 0.01 L 215.93 0 L 236.51 0 L 233.66 0.01 C 233.76 26.57 233.69 53.13 233.7 79.69 C 229.89 83.49 226.1 87.3 222.28 91.08 C 222.27 78.54 222.27 65.99 222.28 53.44 C 220.15 53.43 218.01 53.43 215.88 53.42 C 215.85 65.95 215.87 78.47 215.87 91 C 211.97 91.01 208.08 91.01 204.19 91 C 204.23 64.52 204.12 38.05 204.25 11.58 C 208 7.95 211.65 4.22 215.38 0.57 C 215.36 0.42 215.33 0.14 215.31 0 Z "/>
        <path d=" M 256.42 0 L 256.75 0 C 256.56 27.71 256.72 55.43 256.67 83.15 C 258.78 83.15 260.89 83.15 263 83.15 C 263.14 59.25 262.96 35.34 263.09 11.44 C 266.92 7.68 270.72 3.9 274.5 0.08 L 272.89 0 L 274.51 0 C 274.64 30.33 274.53 60.66 274.57 90.99 C 264.76 91.01 254.95 91 245.14 91 C 245.18 64.49 245.05 37.98 245.21 11.46 C 248.98 7.68 253 4.12 256.42 0 Z "/>
        <path d=" M 397.86 0 L 416 0 L 416 90.94 C 412.15 91.02 408.3 91.01 404.45 91 C 404.56 64.17 404.56 37.34 404.45 10.51 C 402.21 10.52 399.97 10.52 397.73 10.52 C 397.72 37.35 397.72 64.17 397.72 91 C 393.93 91.01 390.14 91.01 386.35 90.98 C 386.3 64.48 386.5 37.97 386.25 11.47 C 390.17 7.69 393.89 3.72 397.86 0 Z "/>
        <path d=" M 0 0.99 L 0.01 0.11 C 12.55 0.15 25.09 0.11 37.63 0.13 C 37.63 3.49 37.63 6.84 37.63 10.2 C 33.48 10.21 29.32 10.21 25.17 10.19 C 25.37 37.12 25.34 64.06 25.18 91 C 21.27 91.01 17.36 91.01 13.45 90.99 C 13.46 64.06 13.46 37.13 13.45 10.21 C 8.96 10.2 4.48 10.2 0 10.2 L 0 0.99 L 0 0.99 Z "/>
        <path d=" M 175.49 1.17 C 181.51 0 187.82 0.83 193.96 0.77 C 194.23 6.89 194.01 13.02 194.09 19.15 C 190.31 22.98 186.48 26.76 182.68 30.57 C 182.68 22.41 182.68 14.25 182.68 6.09 C 180.63 6.08 178.58 6.08 176.53 6.08 C 176.52 17.83 176.53 29.57 176.53 41.32 C 178.6 41.32 180.68 41.32 182.75 41.31 C 186.55 45.11 190.39 48.85 194.11 52.72 C 193.84 61.76 194.51 70.91 193.78 79.88 C 190.3 83.75 186.41 87.25 182.79 90.99 C 176.86 91.01 170.92 91 164.98 91 C 165 84.97 164.95 78.95 164.99 72.92 C 164.67 71.54 165.98 70.73 166.74 69.84 C 169.99 66.68 173.18 63.45 176.39 60.24 C 176.42 68.59 176.38 76.94 176.41 85.28 C 178.47 85.3 180.54 85.31 182.61 85.35 C 182.78 72.68 182.64 60.01 182.68 47.35 C 176.78 47.34 170.88 47.35 164.98 47.34 C 165.04 35.36 164.86 23.37 165.07 11.39 C 168.65 8.09 171.89 4.44 175.49 1.17 Z "/>
        <path d=" M 283.15 12.44 C 287.26 8.69 290.84 4.33 295.16 0.83 C 301.24 0.32 307.36 0.72 313.46 0.76 C 313.46 4.41 313.46 8.06 313.47 11.7 C 316.99 8.13 320.43 4.44 324.16 1.09 C 328.18 0.2 332.34 0.67 336.42 0.68 C 336.44 30.78 336.42 60.89 336.43 91 C 332.58 91.01 328.75 91.02 324.91 90.97 C 324.9 63.59 324.93 36.21 324.89 8.83 C 321.08 12.66 317.22 16.45 313.44 20.3 C 313.46 40.11 313.5 59.91 313.42 79.72 C 309.55 83.45 305.82 87.33 301.95 91.07 C 301.94 62.66 301.95 34.25 301.94 5.84 C 299.81 5.83 297.69 5.83 295.57 5.83 C 295.57 34.21 295.55 62.6 295.57 90.99 C 291.44 91.01 287.32 91.01 283.19 91 C 283.08 64.81 283.15 38.62 283.15 12.44 Z "/>
        <path d=" M 95.3 0 L 95.82 0 C 98.02 0.74 100.36 0.11 102.62 0.14 C 106.46 4.18 110.47 8.05 114.4 12.01 C 114.41 38.34 114.41 64.67 114.41 91 C 110.41 91.01 106.41 91.01 102.41 90.99 C 102.42 77.5 102.42 64.01 102.41 50.52 C 100.19 50.51 97.97 50.52 95.76 50.52 C 95.75 64.01 95.75 77.5 95.75 91 C 91.61 91.01 87.46 91.01 83.31 91 C 83.15 64.82 83.19 38.64 83.3 12.46 C 87.46 8.48 91.86 4.65 95.3 0 Z  M 95.83 6.48 C 98.02 6.4 100.22 6.39 102.42 6.4 C 102.41 18.56 102.42 30.72 102.41 42.88 C 100.24 42.88 98.06 42.88 95.89 42.88 C 95.85 30.75 95.96 18.61 95.83 6.48 Z " fill-rule="evenodd" />
        <path d=" M 354.56 2.55 C 356.94 -0.38 361.33 0.35 364.57 1.13 C 368.11 4.4 371.44 7.9 374.86 11.3 C 375.99 12.18 375.44 13.76 375.61 14.96 C 375.56 40.31 375.59 65.65 375.59 90.99 C 371.59 91.01 367.59 91.01 363.59 91 C 363.58 77.5 363.59 64.01 363.59 50.51 C 361.35 50.51 359.13 50.52 356.9 50.53 C 356.9 64.02 356.9 77.51 356.9 91 C 352.9 91.01 348.91 91.01 344.91 90.99 C 345.04 64.66 344.65 38.32 345.11 12.01 C 348.27 8.87 351.42 5.71 354.56 2.55 Z  M 357.09 6.4 C 359.25 6.4 361.42 6.4 363.58 6.4 C 363.59 18.56 363.58 30.72 363.59 42.87 C 361.42 42.88 359.25 42.88 357.09 42.88 C 357.09 30.72 357.08 18.56 357.09 6.4 Z " fill-rule="evenodd" />
        <path d=" M 41.3 0 L 44.74 0 C 49.72 0.23 54.71 0.08 59.69 0.15 C 63.37 3.91 67.11 7.61 70.85 11.32 C 70.89 20.85 70.85 30.37 70.87 39.9 C 68.49 42.29 66.1 44.67 63.72 47.05 C 66.1 49.44 68.49 51.82 70.87 54.21 C 70.86 66.47 70.86 78.74 70.86 91 C 67.08 91.01 63.3 91.01 59.52 91 C 59.51 77.61 59.53 64.22 59.51 50.83 C 57.38 50.83 55.24 50.83 53.11 50.83 C 53.11 64.22 53.11 77.61 53.11 91 C 49.17 91.01 45.23 91.01 41.29 91 C 41.2 60.66 41.19 30.33 41.3 0 Z  M 53.11 7.8 C 55.24 7.8 57.37 7.8 59.51 7.8 C 59.53 19.67 59.51 31.54 59.51 43.41 C 57.38 43.41 55.24 43.41 53.11 43.41 C 53.11 31.54 53.11 19.67 53.11 7.8 Z " fill-rule="evenodd" />
        <path d=" M 305.58 99.25 C 309.7 99.14 313.82 99.18 317.95 99.18 C 317.94 100.7 317.94 102.22 317.94 103.75 C 313.98 103.74 310.02 103.75 306.06 103.74 C 305.81 111.93 305.9 120.13 305.89 128.33 C 308.7 128.33 311.52 128.33 314.34 128.32 C 314.34 129.95 314.34 131.58 314.35 133.21 C 311.53 133.21 308.71 133.21 305.89 133.23 C 305.89 141.63 305.88 150.03 305.89 158.43 C 309.9 158.44 313.92 158.44 317.94 158.44 C 317.94 159.96 317.94 161.48 317.95 163 L 297.98 163 C 297.95 144.31 298.02 125.63 297.94 106.94 C 300.52 104.42 303.09 101.88 305.58 99.25 Z "/>
        <path d=" M 333.05 99.18 C 337.16 99.18 341.26 99.18 345.37 99.18 C 345.31 103.55 345.55 107.93 345.29 112.3 C 343.17 115.43 340.01 117.75 337.45 120.55 C 337.44 114.83 337.45 109.1 337.45 103.38 C 336.01 103.37 334.57 103.37 333.14 103.36 C 333.12 111.59 333.13 119.82 333.13 128.06 C 334.61 128.08 336.09 128.1 337.57 128.13 C 340.14 130.77 342.76 133.37 345.38 135.97 C 345.38 142.37 345.37 148.76 345.38 155.16 C 342.74 157.77 340.19 160.47 337.48 163 L 324.91 163 C 324.91 158.61 324.94 154.23 324.81 149.85 C 327.49 147.04 330.29 144.36 332.88 141.47 C 333.1 147.33 332.94 153.19 333.03 159.05 C 334.49 159.05 335.96 159.04 337.43 159.04 C 337.47 150.14 337.44 141.24 337.44 132.33 C 333.27 132.32 329.09 132.33 324.91 132.32 C 325.1 123.96 324.53 115.54 325.17 107.22 C 327.56 104.31 330.45 101.88 333.05 99.18 Z "/>
        <path d=" M 375.22 99.19 C 379.5 99.18 383.78 99.17 388.07 99.21 C 388.06 100.37 388.06 101.54 388.06 102.71 C 383.82 102.74 379.58 102.73 375.34 102.73 C 375.31 121.13 375.34 139.54 375.33 157.94 C 377.33 157.95 379.34 157.95 381.35 157.95 C 381.36 149.74 381.35 141.53 381.36 133.32 C 380.6 133.3 379.07 133.27 378.31 133.25 C 378.31 132.48 378.31 130.93 378.32 130.16 C 381.56 130.17 384.81 130.16 388.06 130.2 C 388.06 138.53 388.06 146.85 388.06 155.18 C 385.42 157.78 382.88 160.46 380.19 163 L 367.2 163 C 367.2 144.4 367.2 125.81 367.2 107.21 C 369.86 104.53 372.54 101.86 375.22 99.19 Z "/>
        <path d=" M 403.15 99.18 C 407.43 99.18 411.71 99.18 416 99.18 L 416 163 L 407.91 163 C 407.91 144.16 407.9 125.32 407.91 106.48 C 406.35 106.47 404.8 106.46 403.26 106.45 C 403.23 125.3 403.26 144.15 403.25 163 L 395.19 163 C 395.18 144.38 395.2 125.77 395.18 107.15 C 397.83 104.48 400.49 101.83 403.15 99.18 Z "/>
        <path d=" M 352.74 106.16 C 355.12 103.84 357.49 101.51 359.84 99.16 C 359.84 118.27 359.89 137.38 359.82 156.49 C 357.57 158.62 355.45 160.87 353.2 163 L 352.76 163 C 352.71 144.05 352.75 125.11 352.74 106.16 Z "/>
        <path d=" M 268.28 99.18 C 272.76 99.18 277.23 99.18 281.71 99.18 C 284.4 102.12 287.65 104.58 289.98 107.82 C 290.25 122.19 289.97 136.57 290.11 150.95 C 289.93 152.37 290.46 154.16 289.34 155.31 C 286.89 157.98 284.25 160.48 281.64 163 L 268.28 163 C 268.28 141.73 268.28 120.45 268.28 99.18 Z  M 276.78 105.15 C 278.39 105.15 280 105.15 281.61 105.16 C 281.6 122.52 281.62 139.88 281.6 157.24 C 279.99 157.23 278.39 157.23 276.79 157.23 C 276.78 139.87 276.79 122.51 276.78 105.15 Z " fill-rule="evenodd" />
    </symbol>

    <symbol viewBox="0 0 480 480" id="thd_symbol">
        <path d=" M 240.31 0 L 240.71 0 C 240.81 0.53 241.01 1.58 241.11 2.11 C 243.59 3.87 245.59 6.15 247.72 8.29 C 301.47 61.87 355.17 115.48 408.89 169.08 C 432.61 192.68 456.15 216.47 480 239.94 L 480 239.97 C 400.69 319.51 321.03 398.72 241.63 478.17 C 241.34 478.62 240.76 479.54 240.46 480 L 239.34 480 C 237.92 476.81 235.13 474.62 232.75 472.19 C 155.26 394.85 77.7 317.58 0.3 240.15 C 77.6 162.8 155.12 85.68 232.46 8.37 C 235.13 5.64 238.08 3.14 240.31 0 Z "
              fill="rgb(0,0,0)"/>
        <path d=" M 240.14 24.46 C 283.69 68.35 327.67 111.83 371.35 155.58 C 399.58 183.69 427.7 211.9 455.96 239.99 C 384.17 312.02 312.04 383.74 240.12 455.65 C 168.22 383.73 96.05 312.08 24.27 240.04 C 86.64 177.83 149 115.6 211.36 53.36 C 220.93 43.71 230.72 34.26 240.14 24.46 Z "
              />
        <path d=" M 240.16 48.45 C 303.99 112.44 368.12 176.14 432 240.1 C 368.05 303.99 304.08 367.84 240.13 431.73 C 176.13 367.86 112.17 303.95 48.13 240.12 C 104.96 183.6 161.62 126.9 218.39 70.3 C 225.62 63 233.02 55.85 240.16 48.45 Z "
              fill="rgb(0,0,0)"/>
        <path d=" M 174.24 342.1 C 174.32 274.97 174.08 207.84 174.36 140.71 C 217.35 140.8 260.34 140.71 303.33 140.76 C 303.39 202.18 303.33 263.61 303.36 325.03 C 297.44 330.73 291.86 336.8 285.77 342.32 C 285.68 308.67 285.76 275.02 285.73 241.37 C 273 241.3 260.27 241.31 247.54 241.36 C 247.61 269.16 247.48 296.96 247.61 324.76 C 241.72 330.61 235.96 336.61 229.9 342.28 C 229.83 308.63 229.93 274.98 229.85 241.33 C 217.13 241.37 204.42 241.24 191.71 241.4 C 191.76 269.2 191.69 296.99 191.75 324.79 C 185.81 330.46 180.14 336.39 174.24 342.1 Z "
              />
        <path d=" M 191.72 158.42 C 204.43 158.3 217.14 158.39 229.85 158.38 C 229.91 180.34 229.86 202.3 229.87 224.26 C 217.16 224.28 204.45 224.29 191.73 224.25 C 191.71 202.31 191.74 180.37 191.72 158.42 Z "
              fill="rgb(0,0,0)"/>
        <path d=" M 247.56 158.38 C 260.28 158.38 273.01 158.32 285.73 158.42 C 285.72 180.36 285.74 202.3 285.72 224.25 C 273 224.3 260.28 224.26 247.56 224.27 C 247.55 202.31 247.56 180.34 247.56 158.38 Z "
              fill="rgb(0,0,0)"/>
    </symbol>

     <use href="#thd_symbol" x="0" y="0" width="163" height="163"/>
        <use href="#thd_text" x="182" y="24" width="292" height="115"/>
</svg>