<svg version="1" xmlns="http://www.w3.org/2000/svg" width="682.667" height="682.667" viewBox="0 0 512.000000 512.000000"><path d="M180.3 64.3c-4.8 4-20.3 16.7-34.3 28.1-14 11.5-26.1 21.6-26.7 22.4-1 1.2-1.3 14.3-1.3 57.8 0 50.9.2 56.4 1.6 57.9.9.9 9.4 7.8 18.8 15.3 9.4 7.5 21.2 17 26.1 21.2 12.8 10.8 20.9 17 22.3 17 .7 0 1.2.6 1.2 1.2.1.7 2.8 3.4 6.1 6l6 4.7 39.2.1c21.5 0 39.4.4 39.8.8.3.4 1.4 32.6 2.3 71.7.9 39 1.9 74.3 2.2 78.2.6 7.3.6 7.3 3.5 7.3h2.9v-7.3c0-3.9.5-18.9 1-33.2.5-14.3 1.2-39.5 1.6-56 .4-16.5 1-35.2 1.3-41.5l.7-11.5.7 20.5c.4 11.3 1.2 37.1 1.7 57.5.6 20.3 1.3 44.8 1.6 54.3l.6 17.2h5.6l.6-18.2c2.5-69.2 3.6-105.6 3.6-116.3 0-6.8.4-12.6.8-12.9.5-.3 1.2 13.7 1.7 31.2.4 17.4 1.2 50.6 1.9 73.7l1.1 42 2.6.3c2.7.3 2.7.2 3.3-7.5.3-4.3 1.3-35.9 2.1-70.3 1.5-57.3 2.1-71.8 3-70.8.1.1 1.1 31.6 2 69.8 1.3 50.5 2.1 69.9 3 70.8.9 1.1 1.6 1 3.3-.5 2-1.8 2.1-3.1 4.1-70.7 1.1-37.9 2.3-69.1 2.6-69.4.3-.3.5 1.7.5 4.4s.7 28.3 1.5 56.9c.8 28.6 1.5 55.4 1.5 59.6 0 8.7 1.1 10 5.3 6.6l2.6-2.2 1.6-57c.8-31.4 1.6-60.8 1.6-65.5l.2-8.5.8 10c.8 10.3 2.9 85.9 2.9 102.1 0 10.7 1.1 12.7 5.3 9.4 1.8-1.4 2.7-3.3 3.1-6.3.3-2.3 1-25.4 1.6-51.2 1.5-59 2.4-67.3 3.3-30 2 78.2 1.9 76.5 3.6 76.5.9 0 2.8-1.1 4.3-2.4l2.6-2.3 1.2-45.4c.7-25 1.5-48.1 2-51.4.7-6 .8-5.9 1 3.5.1 5.2.7 26.6 1.4 47.5 1.1 37 1.2 38 3.1 38 2 0 2-.8 2.3-61.9.2-57.9.1-62.1-1.5-63.9-1-1-10.8-8.7-21.8-17S342.6 233.5 333 226c-9.6-7.5-18.2-14-18.9-14.5-.8-.5-17.9-1.1-38-1.4l-36.6-.6-.3-39.8-.2-39.7h40l.2 25.7.3 25.8 54.3.3 54.2.2v-71.5l-35.3-26.7L317.5 57H189.1l-8.8 7.3zM119.2 321.2c-.9.9-1.2 10.2-1.2 35.9 0 30 .2 34.8 1.5 35.9 1.1.9 1.9 1 2.6.3 1-1 4-69.6 3.1-72.1-.5-1.5-4.4-1.6-6 0zM128.4 321.1c-.3.6-.3 18.8.1 40.5l.7 39.4 3.4 2.5c2.8 2.2 5.2 3.1 5.5 2.2.4-.9 2.4-83.5 2.1-84.5-.5-1.5-10.8-1.7-11.8-.1zM143.5 320.9c-1 1-.7 20.7.9 72.6.6 18.5.8 20.1 2.8 22.2 1.2 1.3 2.9 2.3 3.8 2.3 1.5 0 1.8-1.7 2.3-12.3.7-13.2 2.2-66.8 2.2-78.2v-7l-5.5-.3c-3-.2-6 .2-6.5.7zM158.4 321.1c-.7 1.2-.1 26.9 1.7 77.7.9 26.6 1 27.5 3.2 29.3 3.7 3.1 4.5 2.4 5.1-4.4.9-10.3 2.9-100.4 2.3-102.1-.8-1.9-11.2-2.3-12.3-.5z"/><path d="M173.7 320.7c-.2.5.2 27.1 1.1 59.3 1.6 62.2 1.5 62 6.4 62 1.5 0 1.8-.8 1.9-5.3 0-2.8.8-29.7 1.8-59.7.9-30 1.5-55.1 1.3-55.8-.5-1.3-11.8-1.8-12.5-.5zM188.7 320.7c-1 1.8 3.3 130.6 4.4 131.9.6.8 1.9 1.4 2.9 1.4 1.6 0 1.9-1.5 2.4-15.3.7-17.4 2.4-80.8 2.8-103.2l.3-15-6.2-.3c-3.4-.2-6.3.1-6.6.5zM203.8 321c-.3 1 .4 33.6 1.6 69 .3 10.2.9 28.7 1.2 41.2l.7 22.8h5.5l.6-9.8c1.2-19.2 3.9-120.9 3.3-122.5-.5-1.3-2-1.7-6.6-1.7-3.3 0-6.1.4-6.3 1zM219.6 320.9c-.3.5-.2 16.8.4 36.3.5 19.4 1.2 45 1.5 56.8.3 11.8.8 25.7 1.1 30.8l.6 9.3 2.6-.3 2.7-.3 1.7-57.5c1-31.6 1.7-61.6 1.5-66.5l-.2-9-5.7-.3c-3.1-.2-5.9.1-6.2.7zM234.8 321.2c-.3.9 2.1 100.4 3.1 130.5.1 1.8.7 2.3 3 2.3h2.9l.6-17.2c.3-9.5.7-27.9.8-40.8l.3-23.5-3.2-.3-3.3-.3-.2-25.7c-.3-22.8-.5-25.7-1.9-26-.9-.2-1.8.3-2.1 1zM251.5 373.1c-.7 1-.2 29.8 1.1 64.6l.6 16.3h2.9c1.6 0 2.9-.1 3-.3 0-.1.6-18 1.3-39.7.8-24.7.9-40 .3-40.8-1.1-1.5-8.3-1.6-9.2-.1zM266.5 373.2c-.2.7.1 19.1.8 40.8l1.2 39.5 2.8.3c1.5.2 2.7.2 2.8 0 0-.2.6-18.1 1.3-39.8.9-26.4 1-39.9.4-40.8-.6-.6-2.8-1.2-5-1.2s-4 .5-4.3 1.2z"/></svg>